<?xml version="1.0" encoding="iso-8859-1"?>
<!-- Generator: Adobe Illustrator 19.0.0, SVG Export Plug-In . SVG Version: 6.00 Build 0)  -->
<svg version="1.1" id="Capa_1" xmlns="http://www.w3.org/2000/svg" xmlns:xlink="http://www.w3.org/1999/xlink" x="0px" y="0px"
	 viewBox="0 0 468.293 468.293" style="enable-background:new 0 0 468.293 468.293;" xml:space="preserve">
<g>
	<rect x="218.537" y="330.49" style="fill:#64798A;" width="31.22" height="137.803"/>
	<polygon style="fill:#64798A;" points="90.242,468.293 52.645,468.293 140.059,269.661 177.656,269.661 	"/>
	<polygon style="fill:#64798A;" points="378.051,468.293 415.648,468.293 328.233,269.661 290.636,269.661 	"/>
</g>
<path style="fill:#D5D6DB;" d="M437.073,336.631H31.22c-17.242,0-31.22-13.977-31.22-31.22V31.22C0,13.977,13.977,0,31.22,0h405.854
	c17.242,0,31.22,13.977,31.22,31.22v274.191C468.293,322.653,454.315,336.631,437.073,336.631z"/>
<path style="fill:#3A556A;" d="M24.976,305.453V31.181c0-3.448,2.795-6.244,6.244-6.244h405.854c3.448,0,6.244,2.795,6.244,6.244
	v274.272c0,3.448-2.796,6.244-6.244,6.244H31.219C27.771,311.697,24.976,308.901,24.976,305.453z"/>
<g>
	
		<rect x="116.14" y="375.583" transform="matrix(-0.9577 -0.2878 0.2878 -0.9577 229.1842 809.7939)" style="fill:#64798A;" width="115.943" height="24.938"/>
	
		<rect x="236.21" y="375.581" transform="matrix(0.9577 -0.2878 0.2878 0.9577 -99.2277 101.075)" style="fill:#64798A;" width="115.943" height="24.938"/>
</g>
<rect x="315.155" y="288.968" style="fill:#E1E6E9;" width="111.547" height="22.734"/>
<g>
	<path style="fill:#EBF0F3;" d="M93.748,234.523c-0.145,0.164,1.259,0.285,1.506,0.346
		C94.985,234.525,93.385,234.482,93.748,234.523z"/>
	<polygon style="fill:#EBF0F3;" points="90.964,231.127 91.528,231.255 90.187,230.634 	"/>
	<path style="fill:#EBF0F3;" d="M91.348,228.352c-2.414-0.038,0.254,1.055-0.655,1.442l-0.556,0.012l1.888,0.471
		C91.8,229.633,90.629,228.692,91.348,228.352z"/>
	<path style="fill:#EBF0F3;" d="M96.686,227.51c-0.936-0.023-0.753-0.422-0.333,0.312c0.106-0.015,0.166-0.023,0.243-0.034
		C96.59,227.725,96.604,227.643,96.686,227.51z"/>
	<path style="fill:#EBF0F3;" d="M96.595,227.788C96.624,228.091,97.397,227.692,96.595,227.788L96.595,227.788z"/>
	<path style="fill:#EBF0F3;" d="M96.232,226.362l0.781,0.491c0.556-0.015,0.721-0.346,1.106-0.167
		C97.712,226.229,97.158,226.245,96.232,226.362z"/>
	<path style="fill:#EBF0F3;" d="M94.539,225.781l0.326,0.243C95.098,226.017,95.186,225.974,94.539,225.781z"/>
	<path style="fill:#EBF0F3;" d="M95.552,226.541l-0.688-0.517c-0.39,0.01-1.163-0.079,0.243,0.23
		C94.407,226.132,95.076,226.299,95.552,226.541z"/>
	<path style="fill:#EBF0F3;" d="M95.162,226.737c-0.544,0.154-0.904,0.394-1.681-0.097
		C93.716,227.422,95.404,227.522,95.162,226.737z"/>
	<path style="fill:#EBF0F3;" d="M88.905,227.901l-0.736,0.199l0.768,0.351C88.557,228.277,89.652,227.976,88.905,227.901z"/>
	<path style="fill:#EBF0F3;" d="M97.753,224.091c-0.505-0.085-1.366-0.031-2.02-0.08l0.549,0.356
		C96.647,224.261,97,224.02,97.753,224.091z"/>
	<path style="fill:#EBF0F3;" d="M95.734,224.01l-0.818-0.532C94.769,223.848,95.174,223.968,95.734,224.01z"/>
	<polygon style="fill:#EBF0F3;" points="91.904,225.389 93.647,226.314 91.894,225.251 	"/>
	<polygon style="fill:#EBF0F3;" points="98.012,222.457 99.155,222.839 97.434,222.196 	"/>
	<path style="fill:#EBF0F3;" d="M97.936,221.344c0.951,0.294,1.674-0.056,2.25,0.203c-0.138-0.317-0.943-0.666-1.667-0.98
		C98.908,220.858,98.771,221.103,97.936,221.344z"/>
	<path style="fill:#EBF0F3;" d="M97.471,220.061c0.218,0.148,0.62,0.32,1.047,0.507C98.31,220.414,98.001,220.25,97.471,220.061z"/>
	<path style="fill:#EBF0F3;" d="M95.253,222.778c0.311,0.003,1.119,0.034,1.487-0.166h-1.446L95.253,222.778z"/>
	<path style="fill:#EBF0F3;" d="M95.249,222.612h0.045c0.06-0.172,0.104-0.299,0.124-0.354
		C95.398,222.301,95.347,222.407,95.249,222.612z"/>
	<path style="fill:#EBF0F3;" d="M95.242,222.821l0.011-0.043C95.109,222.778,95.063,222.783,95.242,222.821z"/>
	<path style="fill:#EBF0F3;" d="M93.326,224.426c-0.767-0.348-1.559-0.971-2.836-0.614C91.445,224.11,92.171,223.904,93.326,224.426
		z"/>
	<path style="fill:#EBF0F3;" d="M93.435,222.818l-0.38,0.415c0.377,0.036,0.937,0.02,1.317,0.192L93.435,222.818z"/>
	<polygon style="fill:#EBF0F3;" points="93.007,222.542 93.435,222.818 93.575,222.663 	"/>
	<path style="fill:#EBF0F3;" d="M96.043,220.688c-0.599-0.269-0.624-0.489-0.696-0.743c-0.311,0.228-0.497,0.479-0.52,0.735
		C95.27,220.766,96.061,220.973,96.043,220.688z"/>
	<path style="fill:#EBF0F3;" d="M95.531,221.608l-0.076-0.053C95.33,221.569,95.291,221.585,95.531,221.608z"/>
	<polygon style="fill:#EBF0F3;" points="95.623,217.554 95.36,217.564 95.606,217.6 	"/>
	<path style="fill:#EBF0F3;" d="M94.555,220.693c-0.299,0.162,0.036,0.32,0.46,0.482c-0.123-0.162-0.198-0.328-0.188-0.496
		C94.625,220.64,94.492,220.62,94.555,220.693z"/>
	<path style="fill:#EBF0F3;" d="M96.881,219.316c-0.311,0.069-0.577,0.156-0.823,0.251
		C96.522,219.518,97.249,219.395,96.881,219.316z"/>
	<path style="fill:#EBF0F3;" d="M95.858,221.536l0.06,0.036C96.229,221.544,96.081,221.534,95.858,221.536z"/>
	<path style="fill:#EBF0F3;" d="M95.858,221.536c-0.195-0.125-0.537-0.244-0.843-0.361c0.101,0.133,0.241,0.261,0.44,0.381
		C95.559,221.551,95.716,221.543,95.858,221.536z"/>
	<path style="fill:#EBF0F3;" d="M86.54,215.816c1.32,0.179,2.487,0.825,1.021,1.108c0.944,0.543,5.325,0.75,7.799,0.64
		c-0.575-0.079-1.108-0.138-1.841-0.674c-0.738,0.079-1.798,0.806-2.954,0.295c-0.616-0.668,0.522-0.433,1.251-0.645
		c-1.673,0.062-2.315-1.017-4.753-1.155l0.797,0.612C87.481,215.964,86.9,215.709,86.54,215.816z"/>
	<path style="fill:#EBF0F3;" d="M95.132,218.405l0.144,0.203c0.253-0.185,0.798-0.277,1.865-0.44
		c-0.614-0.381-1.097-0.499-1.535-0.569l-0.284,0.891L95.132,218.405z"/>
	<path style="fill:#EBF0F3;" d="M95.19,219.441c-1.42-0.31-1.987-0.822-3.573-0.727c0.04,0.551,1.158,0.515,1.745,0.911
		c-0.254-0.916,0.771,0.343,1.661-0.197c0.225,0.2,0.282,0.364,0.324,0.517c0.192-0.138,0.429-0.266,0.712-0.377
		c-0.034,0.003-0.092,0.01-0.092,0.01l0.002,0.003l-0.019-0.003c-0.185,0.018-0.297,0.018-0.189-0.013l-0.027-0.021
		c-0.196-0.038-0.369-0.071-0.536-0.102c0.327-0.22,0.376,0.003,0.536,0.102l0.216,0.034h0.017l-0.691-0.968
		C95.054,218.771,95.072,219.009,95.19,219.441z"/>
	<path style="fill:#EBF0F3;" d="M87.454,222.977c0.129-0.011,0.233,0.002,0.336,0.011C87.621,222.911,87.504,222.877,87.454,222.977
		z"/>
	<path style="fill:#EBF0F3;" d="M88.364,222.722c0.192,0.087,0.76,0.208,0.589,0.397c-0.452,0.126-0.688-0.084-1.163-0.131
		c0.367,0.171,0.98,0.558,1.727,0.253l-0.189-0.084c0.535-0.292,2.383-0.53,2.574-0.445
		C90.594,222.66,89.663,222.642,88.364,222.722z"/>
	<path style="fill:#EBF0F3;" d="M91.412,221.022l-0.619-0.809l-1.288,0.225l0.75,0.069
		C89.912,220.885,90.842,220.903,91.412,221.022z"/>
	<polygon style="fill:#EBF0F3;" points="96.348,217.55 97.858,217.816 95.756,217.155 	"/>
	<polygon style="fill:#EBF0F3;" points="96.271,216.579 97.586,216.76 96.818,216.42 	"/>
	<path style="fill:#EBF0F3;" d="M83.844,162.084l-0.368-0.226C83.587,161.963,83.712,162.031,83.844,162.084z"/>
	<path style="fill:#EBF0F3;" d="M83.693,163.612l0.654,0.066C83.989,163.592,83.723,163.551,83.693,163.612z"/>
	<path style="fill:#EBF0F3;" d="M98.343,193.178c1.263-0.215,3.211-0.415,1.716-0.496l-1.46-0.018
		C98.842,192.904,98.668,193.059,98.343,193.178z"/>
	<path style="fill:#EBF0F3;" d="M90.77,176.613l-0.446,0.066c0.493,0.105,0.95,0.202,1.378,0.292
		C91.41,176.86,91.099,176.74,90.77,176.613z"/>
	<path style="fill:#EBF0F3;" d="M84.761,176.039l0.963-0.351C85.392,175.76,85.069,175.872,84.761,176.039z"/>
	<path style="fill:#EBF0F3;" d="M82.593,153.671l-1.475-0.29C81.113,153.765,81.866,153.619,82.593,153.671z"/>
	<path style="fill:#EBF0F3;" d="M96.748,206.78c0.594-0.215,0.854-0.407,0.943-0.589C96.826,206.437,95.549,206.577,96.748,206.78z"
		/>
	<path style="fill:#EBF0F3;" d="M99.278,163.331c-0.259-0.143-0.553-0.212-0.878-0.222
		C98.643,163.256,98.918,163.344,99.278,163.331z"/>
	<path style="fill:#EBF0F3;" d="M97.763,205.408c-0.151,0.048-0.228,0.071-0.355,0.11c0.224,0.222,0.399,0.44,0.283,0.673
		C98.333,206.011,98.745,205.771,97.763,205.408z"/>
	<path style="fill:#EBF0F3;" d="M84.107,123.359c0.063-0.025,0.097-0.039,0.174-0.071C84.082,123.283,84.073,123.315,84.107,123.359
		z"/>
	<path style="fill:#EBF0F3;" d="M98.676,114.205c0.094,0.087,0.099,0.231,0.12,0.368C98.896,114.503,98.884,114.392,98.676,114.205z
		"/>
	<path style="fill:#EBF0F3;" d="M97.32,212.818C97.392,213.03,97.475,212.868,97.32,212.818L97.32,212.818z"/>
	<path style="fill:#EBF0F3;" d="M91.479,213.189c-0.157-0.059-0.362-0.115-0.696-0.154C91.128,213.087,91.347,213.14,91.479,213.189
		z"/>
	<path style="fill:#EBF0F3;" d="M88.92,202.555l0.007-0.016C88.637,202.571,88.693,202.566,88.92,202.555z"/>
	<path style="fill:#EBF0F3;" d="M96.627,213.053c0.185-0.057,0.344-0.13,0.458-0.213C96.968,212.869,96.82,212.933,96.627,213.053z"
		/>
	<path style="fill:#EBF0F3;" d="M97.317,213.084c-0.071,0.072-0.114,0.117-0.16,0.161C97.396,213.297,97.551,213.291,97.317,213.084
		z"/>
	<path style="fill:#EBF0F3;" d="M97.271,212.53c0.011,0.118-0.068,0.218-0.186,0.31c0.104-0.03,0.186-0.038,0.234-0.021
		C97.309,212.753,97.294,212.662,97.271,212.53z"/>
	<path style="fill:#EBF0F3;" d="M87.996,139.665c0.045-0.013,0.075-0.021,0.137-0.041C87.53,139.416,87.625,139.506,87.996,139.665z
		"/>
	<polygon style="fill:#EBF0F3;" points="83.653,186.81 83.719,186.837 83.775,186.811 	"/>
	<path style="fill:#EBF0F3;" d="M82.621,186.019c1.788,0.433,1.554,0.591,1.155,0.793l4.207,0.071L82.621,186.019z"/>
	<path style="fill:#EBF0F3;" d="M83.569,158.402l-1.331,0.451c-2.131-0.681-1.371-1.088-3.228-0.686
		c4.559,0.235,0.388,1.951,4.945,2.195l-0.972,0.292c0.047-0.092-0.219-0.118-0.172-0.21c-2.208,0.556,3.278,0.605,2.598,1.409
		c-0.361,0.274-1.029,0.45-1.564,0.23l1.102,0.689c-0.097,0.184-0.887,0.105-0.792-0.077l0.325,0.994l-0.133-0.013
		c0.708,0.171,1.802,0.537,2.266,0.712c-0.666,0.222-0.479-0.146-1.047-0.107l1.082,0.592c-1.193,0.169-2.319-0.333-2.135-0.699
		c-4.573,0.305,1.131,0.5-1.583,1.475l-0.552-0.538c-2.601,0.213-1.684,0.653-3.325,1.153c0.849-0.095,4.119-0.966,5.226-0.328
		c-0.352,0.151-0.526,0.361,0.376,0.722c-1.622-0.072-1.238,0.256-1.165,0.648l-2.147-0.13c0.6,0.448,1.695,0.468,2.648,0.761
		c-0.235,0.458-1.902,0.473-3.308,0.512c-0.378,0.73,2.692-0.384,3.054,0.522c-0.853,0.581,0.003,1.06,1.251,1.874
		c-0.764,0.397-1.31-0.146-1.933-0.021l1.694,0.477c-0.047,0.092-0.57,0.033-0.835,0.003c0.648,0.361,2.145,0.141,2.701,0.686
		c2.361,0.267-3.509,0.865-0.865,1.646c-0.62,0.123-1.311-0.149-2.145-0.148c1.711,0.968,1.237,0.817,3.566,1.669l-1.445,0.528
		c1.637-0.354,3.509,0.328,5.045,0.925c0.788-0.123,1.477-0.231,1.808-0.282l1.104,0.875c-0.358,0.077-1.091-0.049-1.979-0.235
		l0.507,0.179c-0.811,0.241-2.04,0.016-3.227-0.261c0.429-0.067,0.886-0.139,1.342-0.21c-1.292-0.277-2.725-0.546-3.985-0.579
		c0.245,0.066,0.452,0.179,0.565,0.297c-0.352-0.074-0.666-0.125-0.882-0.113c-0.227,0.013,0.242,0.125,0.783,0.289l-2.403,0.038
		l0.947,0.102l-1.558,0.953c2.361,0.894,5.873,1.769,6.782,3.029c-1.733-0.409-2.859-0.248-4.936-0.399
		c2.223-0.182-0.878-0.98-0.395-1.565c-0.251,0.307-1.239,0.172-1.576,0.071l1.935,1.222c-1.698-0.133-1.29,0.151-2.013,0.392
		c3.374,0.002,2.181,0.963,3.179,1.478c-1.128-0.048-2.274-0.231-1.962-0.756c-2.571,0.432,3.889,1.037,1.7,1.487
		c-0.017-0.136,0.16-0.195-0.411-0.287c0.982,0.379,0.134,1.086-0.833,0.84l-0.014-0.135c-0.46,0.855-0.211,2.684,2.632,3.022
		c-0.37-0.043-3.426-0.392-4.001-0.458l9.482,2.279c-2.439-0.318-8.304-0.215-9.64-1.048c-0.364,0.184-0.786,0.413,0.044,0.919
		c0.36-0.116,3.567-0.094,3.777,0.118c-2.768,0.336-1.488,0.267-3.863,0.755c0.54-0.176,4.361,0.353,4.21,0.684
		c-0.569-0.097-3.789-0.259-4.179-0.413l3.701,1.134c-0.661-0.264-3.19-0.282-4.273-0.177c0.746-0.03-0.125,0.724,0.23,0.978
		l0.903-0.289c-0.646,0.907,5.222,1.36,4.949,2.297c-0.768-0.179-4.767-0.668-5.277-0.225c1.911,0.374,9.2,1.731,10.619,2.706
		l-1.116,0.072l1.204,0.755c-2.868-0.651-8.888-2.287-11.215-3.09c-0.901,0.284-1.31-0.008-1.25,0.533
		c-1.049,0.103-1.544-0.418-1.593-0.579l-0.765,1.183c2.258,0.131,2.182,1.135,4.059,1.247l-2.225-1.544
		c2.25,0.13,6.334,1.313,5.857,2.166c-0.918,0.148-3.992-0.509-4.745-0.553c0.764,0.179,1.406,0.962,0.85,0.996l-1.171-0.477
		c-0.89,0.417,2.912,1.057,0.712,1.46c-0.163,0.19-2.951,0.353-1.624,0.504c2.598-0.103,10.547,0.523,12.457,0.917
		c-0.181,0.057-2.551,0.865-3.841,0.984c-2.044,0.156-4.753-0.934-6.508-0.802c0.614,0.067,1.356,0.32,1.594,0.42
		c-0.545,0.166-1.897-0.259-1.66,0.23c2.272,0.282-0.276,0.927,1.909,0.394c0.611,0.514-0.515,0.441-0.46,0.984
		c1.488-0.036,4.971,0.94,5.584,1.462c-0.577-0.082-1.343-0.049-1.692-0.031c-0.286,0.919-1.38,1.323-1.483,2.192
		c-0.56,0.028-1.269,0.382-2.233,0.108c0.392,0.164,1.154,0.354,1.181,0.628c-2.022,0.328-0.246-0.628-2.657-0.463
		c1.321,0.162,1.762,0.871,2.551,1.336c2.059,0.084,0.481-0.847-0.308-1.309c2.822,0.271,5.712,1.226,6.926,2.274
		c0.629,0.799-1.854,0.135-1.467,0.302c-0.627,1.316,4.811,1.662,2.662,2.596c-1.84,0.267-3.574-0.346-4.882-0.379
		c-0.622-0.66,1.231-0.791,1.198-1.201l-0.899,0.409c-0.58-0.249-0.993-0.689-0.453-0.852c-1.653,0.212-0.529,2.273-2.137,3.167
		c0.58,0.248,1.171,0.637,1.91,0.56l-0.214-0.358c1.481-0.156,1.936,0.837,2.658,0.486c0.97,0.555,2.516,1.227,1.628,1.772
		l-2.061-0.1c0.6,0.051,1.263-0.282,0.66-0.527c0.881,0.363-2.879,0.669-0.227,1.245l1.467-0.289c0.98,0.56,3.095,1.355,2.387,1.848
		c2.05-0.034-0.217-0.154,2.193-0.297c-2.983,0.026,0.281-1.424-2.873-1.203c2.79-0.113,1.239-0.582,3.643-0.87
		c-0.678-0.056-1.316,0.053-0.93-0.386c-0.193-0.054-0.439-0.125-0.584-0.166l0.054-0.026l-0.083,0.018
		c-0.1-0.033-0.122-0.036-0.028,0.007c-0.311,0.08-0.675,0.135-1.054,0.131c-1.526-0.399-1.396-1.142-2.173-1.478
		c0.353-0.244,0.764,0.199,1.501,0.121l-1.161-0.504c1.503,0.118,2.568-0.486,3.383,0.266l0.126-0.587
		c0.876-0.264,1.259-0.712,0.657-1.073c0.352-0.249-1.593-0.878-0.441-0.514l-0.838-1.026l0.375,0.028
		c0.282-0.902-2.301-2.135,0.517-2.924c-0.348-0.346-0.781-0.709-0.304-1.186l1.31,0.021c-0.412-0.44,1.409-1.076,0.071-1.373
		c3.537-0.107,0.936-1.866,1.619-2.51l-1.696-0.177c0.138-0.474-0.304-0.98-0.931-1.638l-1.503-0.094
		c-1.186-0.62,1.185-1.229,1.103-2.059c0.569,0.105,0.401,0.299,0.04,0.415c3.484-0.689-2.299-2.259,0.244-2.937
		c-0.531-0.264-0.331-0.409,0.057-0.533c0,0,0.03,0.043,0.076,0.062c0,0,0.027-0.054,0.027-0.09
		c0.266-0.077,0.574-0.167,0.822-0.241c-0.372,0.062-0.679,0.128-0.824,0.194c-0.018-0.172-0.183-0.445-0.541-0.727l1.621,0.02
		c0,0-0.014-0.038-0.04-0.062c0.614-0.2-0.748-0.259-1.973-0.223c-0.254-0.148-0.565-0.289-0.945-0.41
		c2.62,0.003-0.826-0.729,1.973-0.788c-1.34-0.274-0.918-1.345-3.76-1.695c0.374,0.02,0.556-0.041,0.57,0.097
		c0.346-0.256,0.693-0.512-0.091-0.824l2.061,0.034l-2.713-0.817c1.276-0.279,2.014-0.382,3.567,0.105
		c-2.369-1.071-0.865-0.794-3.219-1.726l1.324,0.133c-0.032-0.276-1.782-0.835-0.673-0.921c2.566-0.432,0.556-2.976,3.012-4.383
		c-3.93,0.051,1.798-0.614-1.23-0.87c0.929-0.033,1.465-0.217,2.252,0.087c-0.858-0.855,1.54-1.109-0.983-1.818
		c0.934-0.034,1.344,0.254,1.9,0.207c-0.197-0.077-0.79-0.304-0.231-0.353c0.555-0.048,0.768,0.164,1.163,0.317
		c-0.107-0.829-2.952-1.081-5.622-1.301c1.29-0.336,1.125-0.553-0.613-0.953c0.884-0.092,1.813-0.277,2.098,0.246
		c0.145-0.276,1.385-1.664-0.757-1.813c0.55-0.059,0.183-0.389-0.061-0.477c0.167-0.63,0.364-0.676,0.197-1.313l-0.359,0.154
		c-2.572-0.387-0.549-0.55-0.836-1.071l0.262,0.03c1.926-1.058-0.868-0.546,1.321-1.577l-1.614-0.02
		c-3.457-0.282,2.092-0.906,0.8-1.636l-0.932,0.194c-1.167-0.418,4.759-0.781,5.211-1.127c0.306-0.066,0.476,0.149,0.691,0.271
		c2.093-0.86-2.101-0.225-2.556-0.96c1.145-0.077,2.886,0.307,3.121-0.164c0.93-0.199-3.622-1.559-1.415-2.115
		c-0.883,0.107-1.763,0.21-2.409-0.148c-0.294-0.519,3.367-1.227,0.62-1.802c0.244-0.054,0.474-0.069,0.693-0.062
		c-0.698-0.417-1.135-1.306-2.625-1.597c5.576-0.143-2.612-2.502,2.52-2.302l-0.228-1.199l0.523,0.049
		c0.367-0.75-0.859-1.06-2.082-1.368c0.355-0.164,0.831-0.02,1.098,0.003c1.068-1.076,0.853-1.198-1.678-2.205l1.669-0.046
		c-0.96-0.279,2.66-1.533,0.749-2.678c0.191,0.016,0.512,0.048,0.745,0.141c-1.913-1.275,4.695-2.832-1.362-3.423l-1.478-0.842
		c-0.491,1.034-2.63-0.213-3.643,0.194c-0.348-0.415,1.849-1.019,2.152-0.509l-0.305,0.072c3.157,0.253,1.146-1.273,3.299-1.203
		c-0.119-2.061,1.68-4.041,1.826-5.976l-2.46,0.194l0.147-0.671c0.573-0.171,1.926-0.217,1.819,0.264
		c1.396-0.238-1.161-0.82-1.692-0.838c1.004-0.93,2.862,0.397,2.923,0.11l-0.178-0.394l-0.289,0.085
		c-1.001-0.328-2.066-0.368-1.94-0.943c0.497-0.361,1.519-0.174,1.614-0.317c0.178,0.003,0.259-0.046,0.075-0.22l0.218-0.848
		l-1.944,0.325c-0.954-0.384,0.11-0.796-2.093-0.422c3.402-0.55,1.243-3.152,2.287-3.5c-1.414-0.53-1.388-1.048-1.217-1.692
		c-0.405,0.161-2.586,0.253-2.32-0.299c4.502,0.203,1.954-1.014,5.195-1.467c-2.149,0.404-0.531-1.58-3.582-0.942
		c0.366-0.464,1.686-0.033,2.746-0.387c-1.74-1.096,1.122-2.438,0.52-3.802c-0.593-0.016-1.493,0.218-2.376-0.067l2.948-0.745
		c-0.291-0.267-3.413-0.217-1.367-0.729c-0.497,0.075-1.244,0.185-1.435,0.008c2.862-2.712-2.425-5.407,2.925-8.222
		c-1.139,0.392-1.256,0.148-1.304-0.131c-0.27,0.189-1.458,0.026-2.26,0.079l2.203-1.183c-2.227-0.158-0.174-1.214-2.302-1.283
		l0.391,0.351c-2.519-0.417-5.562,0.796-8.782,0.797c2.862,0.468-4.195,1.483-0.097,2.264c-0.654,0.203-1.041-0.143-1.784-0.026
		c1.383,0.192,1.675,0.453,1.068,0.955l-0.343-0.049c0.361,1.375-0.979,1.99-1.865,3.549l1.59-0.136
		c-0.208,0.335-0.707,0.412-1.105,0.573c2.418,0.35,0.128-0.935,2.792-0.625c-3.234,0.486-0.025,2.353-3.703,2.693
		c-0.015,0.512,1.841-0.169,1.825,0.343l-0.995,0.146l1.285,0.115c-0.208,0.34-1.453,0.52-2.295,0.54
		c0.099-0.082-0.238-0.228-0.312-0.315c-1.169,0.445,0.412,1.221,0.032,1.373l0.609-0.496c0.946,1.388-0.342,3.098,1.678,4.44
		l0.75-0.105c1.39,1.029-0.825,0.829-0.182,1.959l-0.178-0.041c0.747,0.226,1.126,0.53,1.04,0.84
		c-0.88-0.285-1.708,0.537-2.684,0.161c1.492,1.119,1.172,0.555,3.964,1.3l-1.249,0.169c1.13,0.254,1.725,0.277,2.046,0.847
		c-1.069-0.469-1.898,0.354-3.312-0.171c-2.723,1.172,2.741,1.777-1.247,2.297c3.444,0.569,1.924-1.014,2.66-0.706
		c1.129-0.249,2.574,0.468,2.224,0.84c-0.083,0.381-4.422,0.615-4.364,1.567c0.017-0.095-0.245-0.103-0.227-0.199
		c-0.883,0.35,1.184,0.71-0.25,1.134c2.085,0.267-0.124,0.566,2.534,0.666l-0.608-0.883c0.692,0.502,3.8,1.004,2.281,1.808
		c-0.534-0.071-1.239-0.323-1.629-0.496c-0.788,0.231,0.514,0.468-0.294,0.706c-2.661-0.103-0.568-1.071-2.592-1.623
		c-1.127,0.243,1.917,1.024-0.962,0.725c3.66,0.427-0.474,0.93,2.321,1.611l-1.593-0.064c0.248,0.107,0.999,0.328,0.957,0.515
		l-2.064-0.368c1.758,0.545-1.553,0.981-0.603,1.495c-0.029-1.047,1.927-0.207,3.098-0.632c2.111,1.327-4.186,0.679-3.448,2.133
		c-0.222-0.199,0.971-0.717,1.705-0.399c-0.334,0.269-0.953,0.622-1.796,0.776c0.315,0.962,1.645-0.118,2.618,0.308
		c-1.95,0.29,0.781,0.484,1.394,0.919l-1.621-0.03c-1.061,1.071,3.373,0.358,2.095,1.319l-2.238-0.464l0.571,0.525l-1.842-0.144
		c1.356,0.586,1.001,0.753,0.472,1.288c1.142-0.102,2.938,0.138,2.98,0.625c-0.969,0.307-1.537-0.222-1.319,0.471
		c-1.01-0.18-2.279-0.379-0.783-0.643c-0.526-0.075-1.013-0.144-1.535-0.22c-1.113,0.33-0.269,0.886-0.257,1.134
		c0.062-0.094,0.152-0.205,0.381-0.259l2.222,1.05c-0.613,0.141-1.098,0.005-1.576-0.131c0.172,0.207,0.913,0.364,1.042,0.665
		c-1.314-0.112-2.674-0.128-3.283-0.563l1.434,0.984c-0.574,0.048-1.59,0.441-2.069,0.305c-0.79,0.5,2.518,1.355,1.476,2.021
		c0.254,0.044,0.496,0.123,0.68,0.277c-0.316,0.645-1.95,1.17-0.168,2.002l-2.373,0.361c0.518,0.624,2.992-0.496,3.852,0.545
		c0.733,0.742-2.021,0.197-2.686,0.425c1.175,0.395,3.573,1.103,1.625,1.69C83.379,158.768,83.735,158.61,83.569,158.402z
		 M84.308,165.925c-0.332-0.161-1.367-0.496-0.405-0.56C85.75,165.615,84.856,165.704,84.308,165.925z M87.593,177.536
		c-0.526-0.139-0.252-0.29,0.371-0.443C88.089,177.237,88.02,177.39,87.593,177.536z M96.237,210.47c0,0-0.045-0.013-0.078-0.025
		C96.82,210.182,96.559,210.273,96.237,210.47z M95.468,211.081c0.217,0.092,0.443,0.11,0.671,0.105
		c-0.402-0.09-0.417-0.246-0.284-0.409C95.429,210.782,95.128,210.839,95.468,211.081z M98.927,137.631l-0.425,0.128
		C98.037,137.455,98.46,137.542,98.927,137.631z"/>
	<path style="fill:#EBF0F3;" d="M85.457,176.11c0.276-0.025,0.577-0.018,0.882-0.01C86.072,176.026,85.757,176.006,85.457,176.11z"
		/>
	<polygon style="fill:#EBF0F3;" points="82.865,153.724 82.886,153.703 82.593,153.671 	"/>
	<path style="fill:#EBF0F3;" d="M82.789,199.288c0.246-0.117,0.545-0.167,0.857-0.192C83.253,199.053,82.913,199.086,82.789,199.288
		z"/>
	<path style="fill:#EBF0F3;" d="M97.82,214.986l-0.372-0.482c0.057,0.22-0.304,0.258-0.572,0.336
		C97.254,214.871,97.808,214.846,97.82,214.986z"/>
	<path style="fill:#EBF0F3;" d="M87.437,217.662c0.191,0.085,0.007,0.136,0.2,0.222l0.75,0.067
		C88.368,217.675,87.785,217.419,87.437,217.662z"/>
	<path style="fill:#EBF0F3;" d="M92.421,214.81c-1.36-0.112-0.929,0.21-0.711,0.541l0.006-0.052
		C93.599,215.595,93.01,215.202,92.421,214.81z"/>
	<path style="fill:#EBF0F3;" d="M91.748,215.429c0.053,0.1,0.076,0.2,0.003,0.284C92.506,215.833,91.923,215.616,91.748,215.429z"/>
	<path style="fill:#EBF0F3;" d="M96.279,212.039c-0.364,0.108,1.724,0.272,1.164,0.297C99.151,212.677,95.46,211.15,96.279,212.039z
		"/>
	<polygon style="fill:#EBF0F3;" points="87.927,214.572 89.613,214.645 88.282,214.328 	"/>
	<path style="fill:#EBF0F3;" d="M89.418,212.31l-0.519,0.436c0.282,0.021,0.438,0.1,0.555,0.19
		C89.546,212.643,89.913,212.351,89.418,212.31z"/>
	<path style="fill:#EBF0F3;" d="M89.455,212.936c-0.048,0.151-0.027,0.304,0.237,0.42C89.684,213.27,89.648,213.083,89.455,212.936z
		"/>
	<polygon style="fill:#EBF0F3;" points="87.497,213.855 87.861,213.75 88.02,213.422 	"/>
	<path style="fill:#EBF0F3;" d="M90.267,207.128l-0.426-0.578c-0.569-0.11-0.935,0-0.726,0.218
		C89.503,206.936,89.706,207.154,90.267,207.128z"/>
	<path style="fill:#EBF0F3;" d="M85.522,208.267c0.362-0.107,0.737-0.079,1.296-0.105l-2.074-0.225L85.522,208.267z"/>
	<path style="fill:#EBF0F3;" d="M85.19,206.683c-0.571-0.11-1.578-0.925-1.514-0.248C84.242,206.545,84.669,207.12,85.19,206.683z"
		/>
	<polygon style="fill:#EBF0F3;" points="88.563,198.981 88.578,199.119 91.988,199.401 	"/>
	<path style="fill:#EBF0F3;" d="M80.988,191.312c-0.866,0.555,2.095,0.315,1.029,0.794c0.796,0.212,0.87-0.392,1.555-0.187
		C82.75,191.476,83.245,191.317,80.988,191.312z"/>
	<path style="fill:#EBF0F3;" d="M83.573,191.919c0.131,0.061,0.29,0.135,0.501,0.233C83.872,192.027,83.712,191.962,83.573,191.919z
		"/>
	<polygon style="fill:#EBF0F3;" points="100.486,112.667 101.192,112.241 100.047,112.531 	"/>
	<path style="fill:#EBF0F3;" d="M97.932,111.942l2.178-0.148l-1.977-0.197C98.232,111.686,98.423,111.862,97.932,111.942z"/>
	<path style="fill:#EBF0F3;" d="M79.865,166.831l0.523,0.056c0.57-0.036,0.616-0.126,0.715-0.31L79.865,166.831z"/>
	<polygon style="fill:#EBF0F3;" points="81.73,161.495 81.682,161.585 83.659,161.49 	"/>
	<path style="fill:#EBF0F3;" d="M79.394,156.865c-0.088,0.18,0.343,0.413,0.25,0.597C79.306,157.047,81.85,156.897,79.394,156.865z"
		/>
	<path style="fill:#EBF0F3;" d="M250.246,216.632c-0.422-0.079-0.124,1.306-0.159,1.564
		C250.738,217.811,250.19,216.271,250.246,216.632z"/>
	<polygon style="fill:#EBF0F3;" points="251.853,203.454 251.836,202.867 251.195,204.465 	"/>
	<path style="fill:#EBF0F3;" d="M245.716,204.854c1.115,2.209,2.14-0.876,3.422-0.308l0.305,0.492l0.052-1.999
		C248.242,203.654,246.803,205.3,245.716,204.854z"/>
	<path style="fill:#EBF0F3;" d="M241.318,200.532c0.402,0.863-0.529,0.94,0.821,0.112c-0.084-0.089-0.129-0.136-0.189-0.2
		C241.821,200.486,241.64,200.524,241.318,200.532z"/>
	<path style="fill:#EBF0F3;" d="M241.95,200.443C242.577,200.233,241.36,199.775,241.95,200.443L241.95,200.443z"/>
	<path style="fill:#EBF0F3;" d="M239.098,201.618l0.669-0.998c-0.295-0.499-1.074-0.458-0.88-0.912
		C238.117,200.343,238.411,200.84,239.098,201.618z"/>
	<path style="fill:#EBF0F3;" d="M238.665,203.502l0.366-0.44C238.904,202.854,238.77,202.798,238.665,203.502z"/>
	<path style="fill:#EBF0F3;" d="M239.804,202.133l-0.774,0.929c0.205,0.351,0.384,1.109,0.371-0.354
		C239.476,203.418,239.516,202.711,239.804,202.133z"/>
	<path style="fill:#EBF0F3;" d="M240.41,202.376c0.588,0.407,1.276,0.594,0.601,1.588
		C242.566,203.282,241.96,201.695,240.41,202.376z"/>
	<path style="fill:#EBF0F3;" d="M245.951,207.345l0.798,0.541l0.375-0.911C246.936,207.427,245.745,206.621,245.951,207.345z"/>
	<path style="fill:#EBF0F3;" d="M233.562,201.531c0.052,0.51,0.564,1.272,0.761,1.9l0.507-0.706
		C234.436,202.45,233.759,202.261,233.562,201.531z"/>
	<path style="fill:#EBF0F3;" d="M234.324,203.431l-0.761,1.05C234.424,204.407,234.492,203.969,234.324,203.431z"/>
	<polygon style="fill:#EBF0F3;" points="239.076,206.137 240.232,204.005 238.783,206.227 	"/>
	<polygon style="fill:#EBF0F3;" points="229.973,202.207 230.268,200.94 229.678,202.885 	"/>
	<path style="fill:#EBF0F3;" d="M227.638,202.885c0.202-1.039-0.862-1.518-0.564-2.191c-0.609,0.299-0.996,1.231-1.347,2.071
		C226.174,202.246,226.755,202.242,227.638,202.885z"/>
	<path style="fill:#EBF0F3;" d="M225.104,204.009c0.219-0.282,0.412-0.748,0.623-1.244
		C225.491,203.041,225.278,203.415,225.104,204.009z"/>
	<path style="fill:#EBF0F3;" d="M231.909,204.565c-0.135-0.287-0.437-1.048-1.031-1.275l0.657,1.331L231.909,204.565z"/>
	<path style="fill:#EBF0F3;" d="M231.557,204.662l-0.022-0.041c-0.407,0.043-0.692,0.072-0.815,0.085
		C230.824,204.701,231.076,204.688,231.557,204.662z"/>
	<path style="fill:#EBF0F3;" d="M232.004,204.552l-0.094,0.013C231.974,204.698,232.004,204.737,232.004,204.552z"/>
	<path style="fill:#EBF0F3;" d="M236.335,205.402c-0.385,0.907-1.369,1.984,0.006,2.952
		C236.536,207.308,235.752,206.764,236.335,205.402z"/>
	<path style="fill:#EBF0F3;" d="M232.826,206.214l1.068,0.115c-0.097-0.366-0.39-0.871-0.197-1.318L232.826,206.214z"/>
	<polygon style="fill:#EBF0F3;" points="232.427,206.764 232.826,206.214 232.43,206.173 	"/>
	<path style="fill:#EBF0F3;" d="M227.074,204.99c-0.311,0.699-0.774,0.843-1.289,1.048c0.627,0.164,1.249,0.199,1.811,0.08
		C227.587,205.663,227.677,204.819,227.074,204.99z"/>
	<path style="fill:#EBF0F3;" d="M229.278,204.962l-0.08,0.1C229.281,205.17,229.336,205.198,229.278,204.962z"/>
	<polygon style="fill:#EBF0F3;" points="220.516,207.031 220.649,207.272 220.623,207.025 	"/>
	<path style="fill:#EBF0F3;" d="M227.744,206.363c0.485,0.189,0.674-0.208,0.833-0.688c-0.294,0.202-0.617,0.361-0.982,0.443
		C227.6,206.327,227.619,206.46,227.744,206.363z"/>
	<path style="fill:#EBF0F3;" d="M223.768,204.955c0.281,0.254,0.583,0.453,0.894,0.628
		C224.357,205.182,223.777,204.575,223.768,204.955z"/>
	<path style="fill:#EBF0F3;" d="M228.975,204.701l0.052-0.077C228.825,204.353,228.872,204.496,228.975,204.701z"/>
	<path style="fill:#EBF0F3;" d="M228.975,204.701c-0.18,0.248-0.285,0.628-0.398,0.975c0.239-0.166,0.452-0.364,0.621-0.614
		C229.125,204.972,229.04,204.831,228.975,204.701z"/>
	<path style="fill:#EBF0F3;" d="M220.585,216.397c-0.162-1.324,0.759-2.748,2.011-1.531c0.792-1.163-0.66-5.346-1.947-7.594
		c0.076,0.576,0.176,1.103-0.676,2.063c0.478,0.648,2.521,1.257,1.901,2.599c-1.198,0.921-1.171-0.261-1.94-0.83
		c0.848,1.528-1.249,2.684-0.526,5.027l1.013-1.057C220.512,215.444,220.198,216.118,220.585,216.397z"/>
	<path style="fill:#EBF0F3;" d="M222.563,207.051l0.377-0.238c-0.508-0.141-0.941-0.601-1.744-1.511
		c-0.557,0.768-0.607,1.278-0.573,1.723l2.043-0.195L222.563,207.051z"/>
	<path style="fill:#EBF0F3;" d="M224.77,206.458c-0.042,1.487-0.91,2.277-0.012,3.703c1.183-0.335,0.613-1.354,1.209-2.112
		c-1.865,0.735,0.401-0.901-1.151-1.431c0.332-0.318,0.658-0.459,0.969-0.581c-0.381-0.103-0.757-0.253-1.123-0.455l0.061,0.08
		l0.009-0.003l0.002,0.018c0.118,0.162,0.166,0.266,0.053,0.182l-0.035,0.038c0.025,0.197,0.023,0.377,0.016,0.551
		c-0.615-0.184-0.159-0.35-0.016-0.551l-0.018-0.22l-0.01-0.015l-1.783,1.149C223.387,206.931,223.894,206.803,224.77,206.458z"/>
	<path style="fill:#EBF0F3;" d="M235.944,211.616c-0.087-0.112-0.105-0.215-0.131-0.315
		C235.723,211.499,235.7,211.627,235.944,211.616z"/>
	<path style="fill:#EBF0F3;" d="M234.964,210.926c0.101-0.226,0.101-0.817,0.59-0.768c0.488,0.343,0.14,0.679,0.259,1.142
		c0.199-0.435,0.757-1.217-0.257-1.729l-0.097,0.223c-0.886-0.325-2.255-1.887-2.158-2.11
		C233.793,208.915,234.182,209.781,234.964,210.926z"/>
	<path style="fill:#EBF0F3;" d="M229.865,209.087l-1.48,1.016l1.07,1.065l-0.189-0.729
		C230.245,210.546,229.864,209.678,229.865,209.087z"/>
	<polygon style="fill:#EBF0F3;" points="220.2,206.358 220.134,204.814 219.599,207.113 	"/>
	<polygon style="fill:#EBF0F3;" points="218.142,206.928 217.981,205.609 217.572,206.495 	"/>
	<path style="fill:#EBF0F3;" d="M197.116,173.475l-0.081-0.594C197.021,173.128,197.056,173.315,197.116,173.475z"/>
	<path style="fill:#EBF0F3;" d="M195.235,176.249l0.504,0.428C195.522,176.349,195.333,176.151,195.235,176.249z"/>
	<path style="fill:#EBF0F3;" d="M188.089,211.609c2.81-1.613,7.728-4.169,3.848-2.179l-3.716,1.933
		C189.059,211,188.755,211.205,188.089,211.609z"/>
	<path style="fill:#EBF0F3;" d="M183.687,203.282l-0.709,0.08c0.502,0.197,0.969,0.381,1.405,0.551
		C184.166,203.717,183.933,203.505,183.687,203.282z"/>
	<path style="fill:#EBF0F3;" d="M176.746,201.675l2.08-0.784C178.234,201.027,177.57,201.272,176.746,201.675z"/>
	<path style="fill:#EBF0F3;" d="M204.397,156.73l-1.124-1.098C202.934,156.38,203.76,156.366,204.397,156.73z"/>
	<path style="fill:#EBF0F3;" d="M199.024,210.654c-0.195-0.546-0.354-0.765-0.486-0.817
		C198.591,210.675,198.762,211.919,199.024,210.654z"/>
	<path style="fill:#EBF0F3;" d="M209.496,182.87c-0.052-0.402-0.232-0.673-0.513-0.838
		C209.022,182.434,209.156,182.734,209.496,182.87z"/>
	<path style="fill:#EBF0F3;" d="M197.981,209.921c-0.008,0.144-0.013,0.225-0.02,0.35c0.241-0.281,0.431-0.507,0.577-0.433
		C198.507,209.212,198.543,208.815,197.981,209.921z"/>
	<path style="fill:#EBF0F3;" d="M189.001,118.379c-0.04-0.066-0.093-0.105-0.127-0.185
		C188.843,118.39,188.905,118.405,189.001,118.379z"/>
	<path style="fill:#EBF0F3;" d="M168.534,104.276c0.2-0.12,0.549-0.167,0.874-0.23C169.235,103.968,168.967,104.014,168.534,104.276
		z"/>
	<path style="fill:#EBF0F3;" d="M209.602,207.776C210.031,207.607,209.646,207.605,209.602,207.776L209.602,207.776z"/>
	<path style="fill:#EBF0F3;" d="M212.742,213.094c-0.068,0.176-0.105,0.395-0.059,0.729
		C212.661,213.471,212.686,213.242,212.742,213.094z"/>
	<path style="fill:#EBF0F3;" d="M189.944,220.235l-0.036-0.002C189.841,220.529,189.857,220.471,189.944,220.235z"/>
	<path style="fill:#EBF0F3;" d="M210.382,208.316c-0.197-0.148-0.414-0.263-0.641-0.33
		C209.851,208.081,210.048,208.191,210.382,208.316z"/>
	<path style="fill:#EBF0F3;" d="M210.176,207.651c0.173,0.031,0.293,0.053,0.412,0.074
		C210.604,207.477,210.529,207.335,210.176,207.651z"/>
	<path style="fill:#EBF0F3;" d="M208.995,207.958c0.25-0.066,0.499-0.039,0.745,0.028c-0.104-0.084-0.154-0.158-0.139-0.21
		C209.471,207.815,209.289,207.87,208.995,207.958z"/>
	<path style="fill:#EBF0F3;" d="M214.231,130.483c0.037-0.038,0.063-0.064,0.113-0.115
		C213.661,130.145,213.803,130.283,214.231,130.483z"/>
	<path style="fill:#EBF0F3;" d="M140.385,230.495c0.074-0.025,0.224-0.074,0.296-0.098l0.156-0.1L140.385,230.495z"/>
	<path style="fill:#EBF0F3;" d="M138.08,230.57c4.353-1.469,4.587-1.408,3.339-0.688c-0.157,0.112-0.359,0.256-0.581,0.413
		l9.958-4.34l6.281-2.707L138.08,230.57z"/>
	<path style="fill:#EBF0F3;" d="M200.798,166.345l-1.682,0.31c-1.243-2.184-0.142-2.622-2.246-2.637
		c3.919,2.335-1.621,3.831,2.241,6.255l-1.201,0.126c0.144-0.153-0.069-0.317,0.074-0.469c-2.6,0.071,2.296,2.574,0.788,3.81
		c-0.629,0.363-1.418,0.389-1.656-0.266l0.212,1.798c-0.301,0.297-0.914-0.213-0.617-0.507l-0.87,1.997l-0.103-0.085
		c0.431,0.645,0.972,1.843,1.175,2.394c-0.849,0.1-0.251-0.5-0.801-0.696l0.259,1.624c-1.254-0.258-1.653-1.726-1.066-2.322
		c-4.393-1.606,0.424,1.485-3.153,1.941l0.163-1.239c-2.542-0.881-2.262,0.354-4.286,0.432c0.843,0.266,4.758,0.292,4.956,1.992
		c-0.491,0.103-0.896,0.397-0.55,1.505c-1.33-0.942-1.374-0.143-1.817,0.584l-1.702-1.314c-0.042,1.091,0.881,1.685,1.333,2.694
		c-0.786,0.696-2.24-0.138-3.498-0.797c-1.24,1.088,2.798,0.715,1.965,2.509c-1.475,0.586-1.392,1.843-1.415,3.945
		c-1.177,0.282-0.917-0.96-1.61-1.08l0.799,1.749c-0.163,0.136-0.527-0.251-0.711-0.446c0.064,0.983,1.63,1.416,1.337,2.658
		c0.809,0.876-0.241,0.774-1.338,0.788c-1.197,0.141-2.849,0.856-2.376,2.33c-0.89,0.079-0.985-0.876-1.816-1.196
		c-0.526,3.159-0.764,2.647,0.147,5.172l-2.907,0.988c2.823-0.61,3.685,1.324,4.861,2.391c1.17-0.117,2.191-0.217,2.69-0.266
		c0.074,0.486,0.162,0.912,0.302,1.311c-0.561,0.085-1.394-0.089-2.295-0.413c0.135,0.11,0.275,0.21,0.419,0.289
		c-1.368,0.345-2.897,0.054-4.074-0.5c0.721-0.108,1.486-0.225,2.25-0.34c-1.323-0.55-2.632-1.26-4.242-1.437
		c0.174,0.172,0.194,0.438,0.086,0.702c-0.323-0.176-0.631-0.313-0.957-0.295c-0.347,0.021,0.024,0.308,0.419,0.683l-3.585,0.105
		l1.137,0.226l-5.01,2.568c0.797,0.945,2.153,1.672,3.431,2.281c1.296,0.614,2.606,1.08,2.642,1.836
		c-3.138,0.212-5.86,1.04-10.243,1.897c5.386-1.565,0.777-1.866,3.702-3.654c-1.384,0.843-2.969,0.893-3.275,0.725
		c-0.096,0.881-0.01,1.647,0.259,2.296c-3.379,0.56-3.33,1.067-5.821,2.159c7.937-2.044,2.253,1.042,3.499,1.411
		c-2.939,0.852-5.48,1.357-2.935-0.282c-4.026,1.547-2.456,1.555-0.414,1.298c1.975-0.213,4.411-0.686,0.678,0.852
		c0.316-0.29,0.973-0.586-0.396-0.266c1.814-0.074-2.562,2.31-4.944,2.863l0.37-0.317c-4.118,2.671-9.313,7.123,1.079,2.96
		c-1.296,0.499-12.016,4.629-14.041,5.408c6.501-2.133,13.598-4.689,21.292-7.669l7.559-2.901
		c-3.766,1.623-10.111,4.36-16.056,6.923c-7.002,3.017-13.233,5.71-16.528,6.663c-0.933,0.663-1.891,1.347,1.386,0.281
		c0.958-0.551,12.199-5.567,12.868-5.72c-4.636,2.253-5.886,2.86-7.008,3.405c-0.955,0.509-1.791,0.953-5.241,2.789
		c1.493-0.847,13.432-5.986,12.551-5.392c-1.677,0.75-10.955,4.906-12.19,5.459l11.618-4.588c-2.403,0.909-8.734,4.035-10.882,5.311
		c1.648-0.899,2.328-0.149,4.054-0.688l1.02-0.976c1.821,0.4,15.914-6.819,17.583-6.793c-1.969,0.971-11.706,5.928-11.185,6.35
		c2.412-1.199,8.204-4.081,13.894-6.911c5.714-2.94,11.241-5.784,13.444-6.918l-2.024,1.387l3.483-1.71
		c-6.098,3.882-20.917,11.546-28.246,14.571c-0.662,0.94-2.426,1.541-0.35,1.239c-1.415,1.176-4.27,1.985-5.011,2.118l3.4,0.349
		c4.17-2.668,7.686-3.021,10.81-5.218l-8.965,3.227c4.488-2.689,14.917-7.871,16.281-7.638c-0.904,0.989-7.398,4.77-8.72,5.654
		c1.776-0.953,5.221-2.013,4.588-1.396l-3.211,1.534c0.424,0.814,7.308-3.738,5.959-1.442c0.394,0.102-1.948,3.129,0.007,1.582
		c2.159-2.784,13.532-12.027,16.794-14.541c-0.253,0.212-1.687,2.745-2.581,4.166c-1.518,2.259-7.006,5.643-8.364,7.548
		c0.788-0.707,2.252-1.634,2.755-1.936c0.038,0.528-2.484,2.2-0.685,1.726c2.74-2.615,2.717-0.133,2.765-2.269
		c1.987-0.896,0.925,0.363,2.639,0.053c0.93-1.593,5.725-5.756,7.001-6.621c-0.496,0.658-0.848,1.483-0.974,1.846
		c1.971-0.059,2.687,0.878,4.926,0.592c0,0.56,0.976,1.104,0.225,2.202c0.48-0.473,0.974-1.327,1.684-1.488
		c1.085,1.834-1.723,0.564-1.115,2.876c0.414-1.403,2.379-2.207,3.423-3.2c-0.183-2.049-2.132-0.079-3.46,0.95
		c0.788-2.963,2.93-6.297,4.332-7.832c1.153-0.884,0.611,1.762,0.803,1.326c2.638,0.103,1.706-5.279,4.447-3.638
		c1.295,1.623,0.616,3.539,1.046,4.791c-1.228,0.888-2.23-0.806-3.121-0.591l1.246,0.668c-0.33,0.661-1.153,1.252-1.719,0.815
		c1.101,1.457,5.256-0.505,7.876,0.556c0.323-0.666,0.947-1.409,0.482-2.067l-0.709,0.376c-0.929-1.321,1.077-2.225,0.016-2.737
		c0.834-1.181,1.682-2.952,3.229-2.384l0.618,1.984c-0.134-0.587-1.131-1.045-1.421-0.363c0.43-0.994,2.644,2.368,2.821-0.404
		l-1.234-1.229c0.826-1.199,1.676-3.574,3.031-3.154c-0.925-1.902-0.246,0.281-1.546-1.907c1.284,2.781-3.19,0.441-1.423,3.287
		c-1.381-2.558-1.769-0.87-3.35-2.998c0.151,0.665,0.638,1.213-0.459,1.057c-0.014,0.203-0.082,0.471-0.128,0.628
		c0,0-0.047-0.021-0.079-0.038l0.071,0.071c-0.028,0.108-0.028,0.131,0.026,0.023c0.298,0.254,0.56,0.571,0.705,0.929
		c-0.256,1.626-1.928,1.859-2.358,2.75c-0.674-0.215,0.132-0.814-0.326-1.472l-0.643,1.334c-0.33-1.47-2.052-2.204-0.737-3.316
		l-1.322,0.146c-0.908-0.712-2.02-0.876-2.576-0.144c-0.668-0.225-1.304,1.898-0.948,0.645c-0.655,0.42-1.355,0.848-1.505,1.183
		l-0.046-0.372c-0.46-0.028-0.929,0.674-1.537,1.076c-0.588,0.4-1.314,0.499-1.224-0.898c-0.359,0.436-0.896,0.984-1.117,0.582
		l0.662-1.418c-0.606,0.546,0.254-1.36-0.886,0.176c2.765-3.946-0.084-0.77,0.108-1.434l-2.173,2.02
		c-0.204-0.072-1.129,0.54-2.698,1.432l-2.27,1.828c-2.611,1.593,0.236-1.144-0.676-0.878c1.15-0.732,1.034-0.561,0.536-0.139
		c2.689-2.084,1.32-1.28-0.708-0.289c-1.947,0.981-4.537,2.153-2.094,0.581c-1.503,0.74-1.249,0.515-0.475,0.034
		c0.058-0.026,0.125-0.057,0.247-0.112c0,0,0.001-0.023-0.037-0.016c0.551-0.333,1.18-0.71,1.709-1.029
		c-0.785,0.461-1.429,0.84-1.768,1.04c-0.236,0.057-0.933,0.327-2.169,0.855l4.068-2.141c-0.063,0.026-0.087,0.034-0.161,0.064
		c1.383-0.778-2.189,1.039-5.224,2.648c-0.856,0.386-1.827,0.822-2.968,1.337c6.829-3.48-3.288,1.265,4.182-2.463
		c-1.993,0.924-3.079,1.308-4.735,1.938c-1.011,0.386-2.5,0.97-6.483,2.745c1.079-0.492,1.675-0.788,1.577-0.696
		c1.286-0.684,2.483-1.303,0.578-0.553l5.765-2.581l-6.715,2.704c3.819-1.815,5.737-2.645,9.557-4.155
		c-1.16,0.423-1.931,0.704-2.463,0.898c-1.729,0.545-0.463,0.048-4.348,1.314l3.173-1.242c0.13-0.154-3.49,1.019-0.732-0.13
		c3.276-1.405,4.167-2.063,5.17-2.842c0.955-0.763,2.089-1.743,4.727-2.727c-6.871,1.524,3.501-1.094-1.451-0.269
		c1.58-0.32,2.544-0.566,3.651-0.589c-0.8-0.415,2.859-0.825-0.38-1.073c1.34-0.08,1.765,0.075,2.586,0.002
		c-0.252-0.021-0.962-0.135-0.162-0.184c0.785-0.039,0.985,0.069,1.491,0.11c0.072-0.292-3.476-0.622-6.789-0.95
		c2.047-0.34,1.92-0.448,0.241-1.186c1.187-0.01,2.41,0.003,2.316,0.564c0.481-0.333,2.788-1.165,0.766-2.11
		c0.609,0.136,0.535-0.351,0.393-0.563c0.765-0.684,0.897-0.55,1.424-1.477c-0.188,0.041-0.332,0.03-0.477,0.02
		c-1.701-1.999,0.313-1.257,0.814-2.323l0.181,0.194c3.15-0.896,0.031-1.455,3.361-2.19l-1.354-0.889
		c-2.572-2.335,3.08-0.555,2.946-2.627l-1.066-0.113c-0.455-1.372,5.178,0.95,6.06,0.496c0.357,0.028,0.211,0.523,0.23,0.868
		c3.011-0.622-1.509-1.473-0.935-3.124c1.104,0.409,2.122,2.022,2.951,1.206c1.084,0.039-1.123-4.801,1.521-4.86
		c-0.917-0.2-1.824-0.412-1.95-1.426c0.375-1.149,4.542-0.893,2.796-3.283c0.288,0.003,0.511,0.075,0.699,0.187
		c-0.13-1.16,0.528-3.152-0.48-4.384c5.276,2.127,0.443-6.188,4.9-3.636l1.095-2.591l0.429,0.312c1.13-1.434,0.332-2.566-0.48-3.675
		c0.501-0.205,0.792,0.277,1.014,0.43c2.108-1.851,2.002-2.24,0.635-5.277l1.607,0.504c-0.619-0.904,3.992-2.359,3.198-5.59
		c0.167,0.097,0.445,0.267,0.584,0.553c-0.706-3.31,6.911-5.434,1.401-8.326l-0.922-2.31c-1.086,2.322-2.456-1.022-3.685-0.285
		c-0.102-0.966,2.353-1.964,2.395-0.735l-0.337,0.112c2.992,1.191,1.77-2.819,3.846-2.368c0.756-5.05,2.629-10.567,1.547-15.991
		l-2.279,1.101l-0.259-1.756c0.436-0.592,1.707-1.129,1.922,0.202c1.208-1.047-1.716-1.866-2.222-1.703
		c0.165-2.757,3.049,0.108,2.86-0.64l-0.514-1.024l-0.19,0.331c-1.272-0.543-2.232-0.251-2.73-1.749
		c0.069-1.117,1.194-1.081,1.119-1.493c0.164-0.071,0.176-0.235-0.21-0.609c-0.28-0.774-0.602-1.541-0.962-2.302l-1.227,1.785
		c-1.345-0.456-0.976-1.943-2.362,0.069c1.113-1.483,0.182-3.577-1.249-5.211c-1.408-1.662-3.207-2.804-3.277-3.515
		c-2.051,0.169-3.136-0.584-4.573-1.572c0.183,0.576-0.698,2.551-1.762,1.693c2.519-3.799-1.461-2.908-1.453-6.297
		c0.261,2.322-4.189-0.835-3.501,2.602c-1.011-0.674,0.418-1.634-0.173-2.909c-3.157,0.93-5.864-2.479-9.294-2.304
		c-0.12,0.582,0.309,1.549-0.491,2.332l-1.405-3.126c-0.694,0.215-0.919,3.339-1.922,1.19c0.128,0.51,0.309,1.278-0.135,1.429
		c-6.395-3.4-12.798,1.949-19.822-2.591c1.036,1.021,0.451,1.211-0.216,1.341c0.473,0.213,0.179,1.449,0.37,2.233l-3.018-1.811
		c-0.131,2.263-2.88,0.648-2.756,2.804l0.766-0.541c-0.617,2.663,2.538,5.213,2.883,8.422c0.74-3.021,3.57,3.702,4.901-0.543
		c0.484,0.609-0.237,1.07,0.067,1.787c0.311-1.421,0.869-1.78,1.984-1.25l-0.09,0.351c2.943-0.573,4.318,0.719,7.572,1.608
		l-0.241-1.592c0.715,0.212,0.859,0.71,1.183,1.119c0.853-2.41-1.997-0.153-1.244-2.806c0.923,3.201,5.129,0.164,5.538,3.917
		c1.074,0.092-0.189-1.862,0.897-1.762l0.209,1.017l0.381-1.255c0.703,0.274,0.94,1.544,0.882,2.387
		c-0.16-0.116-0.504,0.192-0.691,0.248c0.783,1.242,2.578-0.136,2.849,0.29l-0.947-0.732c3.135-0.596,6.201,1.257,9.165,0.053
		l0.021-0.774c2.372-0.702,1.297,1.249,3.441,1.459l-0.142,0.131c0.688-0.518,1.378-0.596,1.847-0.246
		c-0.847,0.535-0.014,1.949-1.056,2.484c2.341-0.327,1.318-0.587,4.061-2.072l-0.513,1.183c1.071-0.61,1.471-1.021,2.542-0.512
		c-1.383,0.205-0.83,1.8-2.481,2.228c-0.675,3.045,4.134,0.527,1.434,3.61c3.446-1.09,0.561-2.568,1.456-2.538
		c0.571-1.093,2.622-0.858,2.747,0.041c0.388,0.753-3.102,3.344-2.391,4.701c-0.05-0.156-0.299-0.054-0.351-0.203
		c-0.568,0.876,1.599,0.648,0.502,1.879c2.133-0.267,0.192,0.968,2.774,0.333c-0.342-0.491-0.732-0.942-1.103-1.387
		c0.938,0.568,4.276,0.665,3.185,2.732c-0.555-0.02-1.358-0.338-1.812-0.555c-0.667,0.635,0.733,0.756,0.021,1.405
		c-2.598,0.409-1.014-1.861-3.253-2.14c-0.94,0.714,2.348,1.134-0.558,1.449c3.719-0.225-0.076,1.597,2.831,2.259l-1.588,0.151
		c0.266,0.136,1.076,0.415,1.07,0.763l-2.128-0.34c1.88,0.702-1.374,1.798-0.385,2.52c-0.124-1.721,1.912-0.471,3.026-1.324
		c2.224,2.401-4.07,1.408-3.429,3.848c-0.181-0.343,1.021-1.219,1.742-0.645c-0.339,0.481-1.03,1.089-1.882,1.29
		c0.128,1.726,1.669-0.084,2.554,0.758c-2.003,0.368,0.681,0.97,1.151,1.923l-1.6-0.263c-1.414,1.874,3.247,1.195,1.577,2.908
		l-2.007-1.304l0.342,1.112l-1.75-0.624c1.08,1.357,0.646,1.639-0.151,2.525c1.159,0.072,2.799,0.957,2.531,1.958
		c-1.129,0.366-1.343-0.832-1.57,0.591c-0.851-0.633-1.965-1.334-0.364-1.462c-0.486-0.217-0.877-0.592-1.36-0.802
		c-1.258,0.336-0.772,1.593-0.926,2.079c0.118-0.161,0.274-0.348,0.528-0.387l1.433,2.684c-0.69,0.095-1.048-0.325-1.416-0.729
		c0.027,0.45,0.611,0.988,0.517,1.621c-1.169-0.628-2.448-1.093-2.724-2.1l0.653,2.337c-0.578-0.092-1.838,0.33-2.188-0.092
		c-1.119,0.671,1.288,3.49-0.288,4.447c0.198,0.177,0.351,0.422,0.382,0.791c-0.895,1.163-2.866,1.577-1.999,3.887l-2.545-0.228
		c-0.131,1.411,3.25,0.205,3.02,2.571c-0.058,1.746-2.054-0.417-2.887-0.24c0.715,1.234,2.19,3.603-0.213,3.918
		C200.245,166.969,200.733,166.814,200.798,166.345z M193.028,180.796c-0.094-0.458-0.597-1.572,0.324-1.217
		C194.673,180.929,193.778,180.66,193.028,180.796z M177.343,205.069c-0.532-0.241,0.256-0.615,1.498-0.95
		C178.726,204.416,178.327,204.718,177.343,205.069z M204.934,209.881c0,0-0.013,0.049-0.022,0.084
		C204.085,209.458,204.383,209.665,204.934,209.881z M206.557,210.336c0.116-0.246,0.069-0.468-0.032-0.681
		c-0.039,0.42-0.374,0.504-0.779,0.451C205.922,210.508,206.164,210.766,206.557,210.336z M222.805,122.089l-0.231,0.515
		C221.798,122.035,222.274,122.072,222.805,122.089z"/>
	<path style="fill:#EBF0F3;" d="M177.515,201.89c0.439-0.044,0.833-0.007,1.221,0.034
		C178.527,201.736,178.182,201.659,177.515,201.89z"/>
	<polygon style="fill:#EBF0F3;" points="204.602,156.935 204.642,156.899 204.397,156.73 	"/>
	<path style="fill:#EBF0F3;" d="M176.327,228.296c-0.188-0.218-0.09-0.527,0.116-0.86
		C175.944,227.889,175.743,228.25,176.327,228.296z"/>
	<path style="fill:#EBF0F3;" d="M214.074,206.263l-0.888,0.586c0.451-0.161,0.678,0.158,0.958,0.371
		C214.057,206.851,213.778,206.344,214.074,206.263z"/>
	<path style="fill:#EBF0F3;" d="M224.28,214.594c0.105-0.222,0.298-0.077,0.401-0.302l-0.18-0.732
		C223.904,213.721,223.593,214.398,224.28,214.594z"/>
	<path style="fill:#EBF0F3;" d="M215.906,211.409c0.315,1.329,0.844,0.765,1.478,0.394c-0.04,0.013-0.077,0.031-0.12,0.021
		C217.127,209.914,216.516,210.661,215.906,211.409z"/>
	<path style="fill:#EBF0F3;" d="M217.533,211.729c0.198-0.098,0.406-0.171,0.622-0.144
		C218.099,210.818,217.873,211.473,217.533,211.729z"/>
	<path style="fill:#EBF0F3;" d="M208.324,209.125c0.378,0.292-0.085-1.752,0.187-1.237
		C208.585,206.117,206.719,210.319,208.324,209.125z"/>
	<polygon style="fill:#EBF0F3;" points="217.245,215.732 216.705,214.119 216.56,215.524 	"/>
	<path style="fill:#EBF0F3;" d="M211.637,215.453l1.171,0.279c-0.064-0.276,0.047-0.461,0.196-0.614
		C212.321,215.173,211.528,214.969,211.637,215.453z"/>
	<path style="fill:#EBF0F3;" d="M213.004,215.119c0.356-0.03,0.683-0.121,0.831-0.427
		C213.648,214.743,213.25,214.866,213.004,215.119z"/>
	<polygon style="fill:#EBF0F3;" points="215.839,216.497 215.456,216.208 214.663,216.225 	"/>
	<path style="fill:#EBF0F3;" d="M200.067,216.984l-1.111,0.653c-0.166,0.607,0.129,0.921,0.579,0.622
		C199.831,217.808,200.237,217.521,200.067,216.984z"/>
	<path style="fill:#EBF0F3;" d="M204.159,221.021c-0.379-0.294-0.459-0.661-0.727-1.18l0.284,2.067L204.159,221.021z"/>
	<path style="fill:#EBF0F3;" d="M200.233,222.109c-0.1,0.601-2.3,2.017-0.278,1.587
		C200.144,223.088,201.618,222.384,200.233,222.109z"/>
	<polygon style="fill:#EBF0F3;" points="180.978,222.033 181.337,221.964 185.771,217.934 	"/>
	<path style="fill:#EBF0F3;" d="M144.531,233.91c0.439,0.781,5.498-2.637,5.136-1.577c2.332-1.034,0.317-0.868,2.451-1.77
		C148.869,231.726,149.261,231.205,144.531,233.91z"/>
	<path style="fill:#EBF0F3;" d="M152.118,230.562c0.49-0.187,1.068-0.407,1.819-0.692
		C153.142,230.172,152.592,230.382,152.118,230.562z"/>
	<polygon style="fill:#EBF0F3;" points="164.628,103.045 163.5,102.527 164.354,103.536 	"/>
	<path style="fill:#EBF0F3;" d="M163.226,105.899l-0.663-2.092l-0.185,2.049C162.576,105.718,162.963,105.449,163.226,105.899z"/>
	<path style="fill:#EBF0F3;" d="M188.068,180.223l0.386,0.359c0.541,0.228,0.686,0.085,0.992-0.194L188.068,180.223z"/>
	<polygon style="fill:#EBF0F3;" points="195.867,171.419 195.724,171.568 197.604,172.27 	"/>
	<path style="fill:#EBF0F3;" d="M198.475,161.702c-0.256,0.31-0.08,0.927-0.339,1.239
		C198.218,162.015,200.702,162.745,198.475,161.702z"/>
	<path style="fill:#EBF0F3;" d="M308.51,205.838l0.058,0.033C308.44,205.799,308.51,205.838,308.51,205.838z"/>
	<polygon style="fill:#EBF0F3;" points="309.775,212.32 309.744,212.907 310.538,211.353 	"/>
	<path style="fill:#EBF0F3;" d="M316.253,211.043c-1.149-2.171-2.239,0.886-3.576,0.307l-0.296-0.499l-0.148,2.007
		C313.598,212.247,315.13,210.634,316.253,211.043z"/>
	<path style="fill:#EBF0F3;" d="M321.064,215.134c-0.476-0.837,0.554-0.975-0.912-0.057c0.095,0.084,0.146,0.128,0.214,0.189
		C320.507,215.212,320.707,215.163,321.064,215.134z"/>
	<path style="fill:#EBF0F3;" d="M320.366,215.265C319.675,215.517,321.038,215.895,320.366,215.265L320.366,215.265z"/>
	<path style="fill:#EBF0F3;" d="M323.431,213.8l-0.668,1.081c0.35,0.468,1.209,0.33,1.024,0.809
		C324.601,214.955,324.232,214.497,323.431,213.8z"/>
	<path style="fill:#EBF0F3;" d="M323.756,211.862l-0.356,0.482C323.55,212.538,323.7,212.577,323.756,211.862z"/>
	<path style="fill:#EBF0F3;" d="M322.632,213.365l0.767-1.021c-0.247-0.327-0.492-1.067-0.372,0.397
		C322.896,212.039,322.907,212.751,322.632,213.365z"/>
	<path style="fill:#EBF0F3;" d="M321.966,213.191c-0.657-0.341-1.388-0.458-0.732-1.531
		C319.62,212.47,320.325,214.044,321.966,213.191z"/>
	<path style="fill:#EBF0F3;" d="M315.982,208.549l-0.808-0.515l-0.377,0.907C314.989,208.506,316.201,209.271,315.982,208.549z"/>
	<path style="fill:#EBF0F3;" d="M329.457,213.048c-0.124-0.499-0.777-1.165-1.07-1.756l-0.452,0.788
		C328.391,212.287,329.145,212.357,329.457,213.048z"/>
	<path style="fill:#EBF0F3;" d="M328.387,211.292l0.664-1.172C328.151,210.339,328.137,210.785,328.387,211.292z"/>
	<polygon style="fill:#EBF0F3;" points="323.094,209.279 322.053,211.535 323.39,209.158 	"/>
	<polygon style="fill:#EBF0F3;" points="333.214,211.629 333.109,212.946 333.411,210.897 	"/>
	<path style="fill:#EBF0F3;" d="M335.569,210.401c-0.008,1.076,1.218,1.268,1.035,2.01c0.595-0.458,0.816-1.478,1.004-2.392
		C337.25,210.643,336.627,210.805,335.569,210.401z"/>
	<path style="fill:#EBF0F3;" d="M337.989,208.641c-0.166,0.331-0.265,0.837-0.381,1.378
		C337.799,209.686,337.942,209.264,337.989,208.641z"/>
	<path style="fill:#EBF0F3;" d="M330.766,209.709c0.188,0.258,0.629,0.948,1.297,1.045l-0.915-1.178L330.766,209.709z"/>
	<path style="fill:#EBF0F3;" d="M331.119,209.54l0.03,0.036c0.419-0.126,0.712-0.215,0.839-0.253
		C331.88,209.35,331.618,209.415,331.119,209.54z"/>
	<path style="fill:#EBF0F3;" d="M330.67,209.742l0.096-0.033C330.677,209.591,330.639,209.558,330.67,209.742z"/>
	<path style="fill:#EBF0F3;" d="M326.021,209.658c0.3-0.963,1.146-2.182-0.379-2.935
		C325.579,207.792,326.458,208.214,326.021,209.658z"/>
	<path style="fill:#EBF0F3;" d="M329.549,208.258l-1.116,0.09c0.155,0.346,0.537,0.797,0.399,1.27L329.549,208.258z"/>
	<polygon style="fill:#EBF0F3;" points="329.867,207.637 329.549,208.258 329.962,208.222 	"/>
	<path style="fill:#EBF0F3;" d="M335.721,208.188c0.172-0.763,0.615-1.021,1.099-1.349c-0.683-0.002-1.327,0.118-1.877,0.372
		C335.05,207.658,335.133,208.508,335.721,208.188z"/>
	<path style="fill:#EBF0F3;" d="M333.452,208.765l0.065-0.115C333.409,208.56,333.346,208.547,333.452,208.765z"/>
	<polygon style="fill:#EBF0F3;" points="341.9,204.365 341.701,204.174 341.796,204.406 	"/>
	<path style="fill:#EBF0F3;" d="M334.74,207.01c-0.534-0.066-0.643,0.369-0.709,0.881c0.26-0.271,0.557-0.509,0.913-0.679
		C334.895,207.01,334.847,206.883,334.74,207.01z"/>
	<path style="fill:#EBF0F3;" d="M339.143,207.341c-0.349-0.164-0.707-0.274-1.065-0.358
		C338.484,207.29,339.227,207.717,339.143,207.341z"/>
	<path style="fill:#EBF0F3;" d="M333.817,208.951l-0.039,0.089C334.039,209.256,333.963,209.128,333.817,208.951z"/>
	<path style="fill:#EBF0F3;" d="M333.817,208.951c0.137-0.289,0.169-0.691,0.214-1.06c-0.211,0.222-0.39,0.471-0.515,0.76
		C333.61,208.72,333.724,208.839,333.817,208.951z"/>
	<path style="fill:#EBF0F3;" d="M339.096,195.421c0.561,1.209,0.104,2.844-1.424,2.035c-0.424,1.311,2.112,4.967,4.029,6.719
		c-0.238-0.53-0.479-1.009,0.079-2.194c-0.663-0.468-2.811-0.443-2.588-1.918c0.883-1.239,1.195-0.097,2.109,0.215
		c-1.261-1.208,0.393-2.935-1.028-4.942l-0.622,1.298C339.455,196.308,339.542,195.578,339.096,195.421z"/>
	<path style="fill:#EBF0F3;" d="M339.836,204.955l-0.319,0.34c0.549-0.011,1.105,0.31,2.171,0.948
		c0.368-0.902,0.262-1.424,0.108-1.838l-2.006,0.794L339.836,204.955z"/>
	<path style="fill:#EBF0F3;" d="M337.759,206.163c-0.311-1.46,0.342-2.466-0.904-3.602c-1.079,0.637-0.26,1.487-0.685,2.368
		c1.698-1.201-0.185,0.994,1.503,1.09c-0.256,0.407-0.561,0.624-0.853,0.82c0.416,0.005,0.84,0.056,1.258,0.144l-0.081-0.061
		l-0.008,0.007l-0.006-0.018c-0.158-0.125-0.232-0.212-0.097-0.162l0.026-0.046c-0.072-0.185-0.113-0.363-0.149-0.533
		c0.667,0.007,0.245,0.295,0.149,0.533l0.071,0.208l0.014,0.011l1.52-1.628C339.034,205.308,338.562,205.586,337.759,206.163z"/>
	<path style="fill:#EBF0F3;" d="M325.574,203.438c0.102,0.098,0.135,0.197,0.176,0.292
		C325.808,203.521,325.811,203.392,325.574,203.438z"/>
	<path style="fill:#EBF0F3;" d="M326.645,203.979c-0.064,0.236,0.027,0.819-0.468,0.84c-0.535-0.267-0.239-0.65-0.427-1.09
		c-0.127,0.456-0.574,1.313,0.511,1.67l0.064-0.233c0.931,0.207,2.559,1.495,2.5,1.729
		C328.127,205.766,327.603,204.998,326.645,203.979z"/>
	<path style="fill:#EBF0F3;" d="M332.04,204.844l1.248-1.339l-1.281-0.797l0.341,0.671
		C331.366,203.497,331.92,204.263,332.04,204.844z"/>
	<polygon style="fill:#EBF0F3;" points="342.404,204.913 342.901,206.38 342.791,203.994 	"/>
	<polygon style="fill:#EBF0F3;" points="344.301,203.705 344.854,204.914 345.001,203.932 	"/>
	<path style="fill:#EBF0F3;" d="M303.113,143.068l-1.818,0.276C301.983,143.265,302.57,143.172,303.113,143.068z"/>
	<path style="fill:#EBF0F3;" d="M308.049,143.392l1.84-0.56C308.714,143.134,307.913,143.359,308.049,143.392z"/>
	<path style="fill:#EBF0F3;" d="M386.96,164.263c1.322-0.891,3.282-2.186,1.783-2.079l-1.468,0.292
		C387.503,163.239,387.32,163.818,386.96,164.263z"/>
	<path style="fill:#EBF0F3;" d="M357.328,138.532l0.075,0.479c0.3-0.432,0.579-0.834,0.839-1.209
		C357.957,138.029,357.651,138.274,357.328,138.532z"/>
	<path style="fill:#EBF0F3;" d="M354.783,144.145l-0.978-1.135C353.961,143.372,354.264,143.749,354.783,144.145z"/>
	<path style="fill:#EBF0F3;" d="M299.645,135.306l-3.852,0.128C293.373,136.53,297.188,135.622,299.645,135.306z"/>
	<path style="fill:#EBF0F3;" d="M363.232,191.442c0.837,0.128,1.37,0.039,1.766-0.146
		C363.913,191.031,362.713,190.332,363.232,191.442z"/>
	<path style="fill:#EBF0F3;" d="M346.875,130.306c-0.836,0.236-1.641,0.463-2.541,0.719
		C345.147,130.825,345.955,130.598,346.875,130.306z"/>
	<path style="fill:#EBF0F3;" d="M366.458,190.275c-0.173-0.059-0.302-0.057-0.463-0.095c-0.23,0.458-0.492,0.878-0.997,1.116
		C365.8,191.494,366.54,191.45,366.458,190.275z"/>
	<path style="fill:#EBF0F3;" d="M338.284,101.674c-0.05-0.062-0.11-0.095-0.156-0.174
		C338.114,101.698,338.183,101.708,338.284,101.674z"/>
	<path style="fill:#EBF0F3;" d="M318.261,87.021c0.196-0.094,0.517-0.097,0.82-0.116C318.934,86.805,318.686,86.814,318.261,87.021z
		"/>
	<path style="fill:#EBF0F3;" d="M352.405,199.821C352.049,200.143,352.424,199.997,352.405,199.821L352.405,199.821z"/>
	<path style="fill:#EBF0F3;" d="M347.518,196.02c0.001-0.189-0.042-0.409-0.202-0.704
		C347.461,195.636,347.519,195.86,347.518,196.02z"/>
	<path style="fill:#EBF0F3;" d="M364.916,180.256l0.035-0.018C364.677,180.082,364.727,180.115,364.916,180.256z"/>
	<path style="fill:#EBF0F3;" d="M351.456,199.615c0.243,0.062,0.495,0.087,0.739,0.064
		C352.053,199.631,351.823,199.603,351.456,199.615z"/>
	<path style="fill:#EBF0F3;" d="M351.892,200.158c-0.179,0.038-0.303,0.064-0.426,0.09
		C351.538,200.486,351.662,200.591,351.892,200.158z"/>
	<path style="fill:#EBF0F3;" d="M352.928,199.416c-0.219,0.159-0.47,0.23-0.733,0.263c0.131,0.038,0.206,0.087,0.21,0.143
		C352.518,199.734,352.675,199.613,352.928,199.416z"/>
	<path style="fill:#EBF0F3;" d="M352.858,107.97c0.056-0.01,0.096-0.018,0.172-0.031
		C352.521,107.564,352.566,107.697,352.858,107.97z"/>
	<polygon style="fill:#EBF0F3;" points="370.188,155.437 370.268,155.435 370.289,155.368 	"/>
	<path style="fill:#EBF0F3;" d="M368.661,155.028c1.771-0.573,1.764-0.164,1.628,0.34l3.408-2.473
		C371.977,153.542,370.297,154.254,368.661,155.028z"/>
	<path style="fill:#EBF0F3;" d="M292.733,142.268l-4.051,1.388c-8.961,1.711-8.272,0.965-13.646,2.768
		c18.049-4.115,6.273,0.071,22.041-3.735l-1.727,0.86c-0.228-0.057-1.11,0.158-1.339,0.102c-4.115,1.943,11.899-2.594,12.555-1.933
		c-0.08,0.338-1.236,0.93-3.452,1.35l5.281-0.85c0.355,0.102-1.942,0.77-2.327,0.666l4.194-0.167l-0.373,0.115
		c2.379-0.587,6.157-1.518,7.791-1.921c-0.918,0.599-1.598,0.41-2.851,0.912l4.399-0.917c-2.236,1.071-6.468,2.036-7.281,1.831
		c-9.739,4.076,4.242-0.958,1.436,1.562l-3.161,0.435c-5.03,2.371-1.268,1.611-2.638,3.214c1.152-0.832,5.025-3.913,9.734-4.849
		c-0.256,0.331,0.143,0.517,3.226-0.287c-3.593,1.493-1.602,1.176-0.064,1.147l-4.632,2.005c2.886-0.502,5.026-1.537,7.85-2.412
		c1.196,0.271-1.646,1.879-3.863,3.25c2.369,0.487,3.052-2.666,7.189-2.886c0.754,0.914,4.22,0.141,8.81-1.027
		c0.595,0.774-2.234,1.298-2.527,1.92l3.988-1.665c0.303,0.049-0.523,0.566-0.948,0.827c2.16-0.63,3.043-2.118,5.535-2.638
		c1.698-1.155,1.418-0.266,1.691,0.568c0.234,0.825,1.098,1.633,3.355,0.418c0.06,0.609-1.368,1.237-1.9,2.038
		c4.743-1.544,3.883-1.004,7.571-3.011c0.364,0.527,0.752,1.106,1.208,1.664c-0.684-1.774,2.009-3.25,3.522-4.478
		c-0.092-0.82-0.172-1.537-0.211-1.887c0.721-0.238,1.143-0.505,1.921-0.686c0.126,0.402-0.268,1.058-0.796,1.843l0.464-0.405
		c0.417,0.945-0.282,2.036-1.026,3.073c-0.089-0.468-0.183-0.963-0.277-1.459c-0.812,1.117-1.86,2.396-2.182,3.613
		c0.247-0.205,0.619-0.356,0.971-0.384c-0.256,0.302-0.458,0.579-0.451,0.802c0.026,0.243,0.392-0.171,0.983-0.566l-0.294,2.407
		l0.34-0.893c0.542,0.655,1.005,1.329,1.346,2.008c1.956-1.884,4.724-4.553,7.562-4.04c-1.469,1.185-1.593,2.396-2.711,4.153
		c0.561-2.213-1.958-0.077-2.726-0.878c0.431,0.458-0.123,1.296-0.39,1.549c0.852-0.368,1.735-0.646,2.654-0.871
		c-0.889,1.455-0.271,1.311-0.213,2.156c1.443-3.07,2.476-1.05,3.776-1.344c-0.654,0.934-1.483,1.697-2.144,0.935
		c-0.624,2.601,3.537-2.274,3.143,0.143c-0.219-0.141-0.22-0.363-0.664,0.018c1.147-0.422,1.686,1.227,0.753,1.692l-0.194-0.154
		c1.046,1.324,3.19,3.592,5.735,2.246c-0.299,0.218-2.963,1.79-3.482,2.063c3.126-1.14,6.446-1.915,9.905-2.2
		c-2.28,0.93-7.077,4.401-8.85,3.969c-0.125,0.476-0.366,0.996,0.746,1.26c0.228-0.322,2.936-2.071,3.306-1.826
		c-2.036,2.012-1.029,1.293-2.837,3.091c0.375-0.494,4.148-1.408,4.271-0.678c-0.575,0.069-3.625,1.109-4.077,1.045
		c1.324,0.034,2.624,0.19,3.995,0.474c-0.759-0.256-3.149,0.609-4.14,1.027c0.765-0.23,0.008,0.983,0.445,1.24l0.817-0.566
		c-0.472,1.291,5.437,1.428,4.949,3.552c-0.713-0.422-4.667-1.173-5.252-0.625c1.933,0.453,8.685,3.997,8.9,7.17l-1.191-0.095
		c0.096,0.709,0.174,1.45,0.197,2.186c-0.923-1.26-2.355-3.288-4.005-4.988c-1.625-1.726-3.503-3.075-4.484-3.748
		c-1.005,0.19-1.309-0.256-1.411,0.368c-1.026-0.189-1.389-0.832-1.393-0.965c-0.356,0.289-0.624,0.558-1.01,0.799
		c2.085,0.924,1.438,2.053,3.003,3.067c-0.27-1.021-0.669-1.938-1.176-2.712c2.161,0.663,5.369,3.848,3.881,5.252
		c-0.968-0.189-3.097-2.589-3.762-2.953c0.573,0.558,0.406,1.961-0.134,1.713c-0.164-0.418-0.363-0.829-0.565-1.224
		c-1.065-0.008,1.423,2.981-0.899,2.264c-0.367,0.174-2.773-1.373-1.903-0.354c2.139,1.529,7.85,7.106,8.75,8.916
		c-0.272,0.052-3.627-0.072-4.816-0.771c-1.827-1.119-2.2-4.422-3.786-5.37c0.379,0.491,0.569,1.321,0.592,1.613
		c-0.677-0.135-1.054-1.603-1.621-0.797c1.284,1.903-1.695,1.055,0.821,1.811c-0.38,1.112-1.105,0.248-1.98,1.016
		c1.184,0.968,2.1,4.704,1.628,5.838c-0.289-0.509-0.92-0.993-1.212-1.209c-1.835,1.052-3.351,0.857-4.968,1.949
		c-0.465-0.353-1.618-0.369-1.85-1.408c0.002,0.492,0.232,1.28-0.232,1.667c-2.074-0.975,0.925-1.014-1.152-2.474
		c0.696,1.144-0.232,2.389-0.477,3.552c1.37,1.556,1.868-0.776,2.092-1.954c1.618,2.332,2.068,5.633,1.066,7.884
		c-0.98,1.511-1.612-1.124-1.626-0.628c-2.844,1.288,0.498,5.598-2.8,5.298c-1.843-0.975-1.965-3.006-2.86-3.984
		c0.757-1.286,2.338-0.148,3.063-0.702l-1.4-0.108c0.029-0.738,0.522-1.601,1.213-1.429c-1.583-0.881-4.517,2.56-7.314,2.502
		c-0.043,0.729-0.341,1.639,0.328,2.084l0.513-0.599c1.354,0.889-0.175,2.451,0.999,2.543c-0.342,1.395-0.518,3.38-2.186,3.405
		l-1.267-1.651c0.329,0.512,1.431,0.591,1.46-0.161c-0.057,1.114-3.295-1.319-2.531,1.347l1.589,0.743
		c-0.384,1.401-0.449,3.961-1.916,4.023c1.506,1.505,0.149-0.346,2.118,1.281c-2.144-2.192,2.998-1.546,0.332-3.615
		c2.206,1.933,2.015,0.205,4.281,1.593c-0.38-0.566-1.043-0.894,0.075-1.168c-0.059-0.197-0.087-0.473-0.099-0.638l0.09,0.005
		c-0.032-0.013-0.093-0.038-0.093-0.038c-0.012-0.112-0.019-0.133-0.033-0.011c-0.379-0.125-0.742-0.322-1.008-0.602
		c-0.333-1.623,1.178-2.453,1.243-3.452c0.712-0.062,0.182,0.807,0.857,1.24l0.101-1.488c0.863,1.239,2.78,1.219,1.953,2.78
		l1.203-0.673c1.142,0.289,2.271-0.03,2.496-0.942c0.721-0.08,0.456-2.292,0.63-0.994l1.281-1.953l0.224,0.302
		c1.86-1.026,2.181-4.475,5.684-3.603c0.359-0.717,0.698-1.508,1.896-1.839l0.94,0.934c0.471-0.891,2.97-0.507,2.495-1.838
		c2.822,2.31,4.214-2.102,6.075-2.881l-1.037-1.355c1.041-0.747,1.692-1.959,2.396-3.641l-1.141-0.988
		c0.057-1.811,3.309-1.915,4.612-4.194c0.397,0.468-0.105,0.909-0.644,1.071c2.266-0.208,2.691-2.125,2.706-3.897
		c0.024-1.833-0.333-3.493,1.239-4.557c-0.391-0.835-0.118-1.281,0.344-1.725c-0.006,0.067,0.011,0.131,0.047,0.19
		c0.03-0.071,0.055-0.179,0.072-0.292c0.312-0.276,0.666-0.566,0.964-0.906c-0.413,0.271-0.761,0.518-0.942,0.747
		c0.093-0.556-0.008-1.424-0.374-2.253l1.63-0.281c-0.015-0.079-0.02-0.107-0.038-0.2c0.624-0.848-0.746-0.666-1.976-0.272
		c-0.252-0.404-0.564-0.761-0.947-1.022c2.59-0.76-1.037-1.857,1.632-3.039c-1.388-0.33-1.797-3.661-4.711-3.032
		c0.348-0.136,0.45-0.381,0.595-0.044c0.062-0.802,0.094-1.669-0.884-1.99l1.754-1.104c-1.093-0.153-2.167-0.254-3.217-0.304
		c0.701-1.418,1.097-2.227,2.976-2.026c-3.358-0.96-1.819-1.365-4.928-1.646l1.142-0.692c-0.483-0.566-2.549-0.343-1.939-1.359
		c0.916-2.96-4.926-5.887-7.264-9.832c-1.317,3.761-0.817-2.494-2.468,0.064c0.235-0.93-0.056-1.695,0.931-2.061
		c-2.355-0.164-2.483-2.86-4.891-0.988c0.076-0.965,0.928-1.104,0.905-1.702c-0.25,0.121-0.965,0.505-1.008-0.098
		c-0.045-0.602,0.574-0.619,1.071-0.866c-2.407-0.725-3.305,2.094-4.224,4.589c-0.765-1.528-0.783-1.372-1.916,0.172
		c0.06-0.881,0.15-1.797,0.906-1.948c-0.418-0.246-1.404-1.61-2.815,0.302c0.221-0.507-0.448-0.236-0.745-0.03
		c-0.845-0.231-0.733-0.427-1.823-0.331l-0.065,0.32c-2.787,2.161-1.419,0.394-2.511,0.605l0.308-0.218
		c0.401-1.657-1.998,0.669-0.972-1.15l-2.09,1.324c-2.419,1.418-2.276,0.971-1.707,0.33c0.537-0.643,1.636-1.511,0.059-0.971
		l-1.097,0.751c-2.76,0.962,6.317-3.841,7.065-4.189c0.491-0.246,0.986-0.394,1.459-0.574c3.096-1.661-3.917,1.715-5.628,2.12
		c2.096-0.927,5.714-2.358,5.821-2.529c0.844-0.374-1.186,0.379-3.173,1.007c-1.949,0.627-3.895,1.127-1.648,0.238
		c-1.936,0.715-3.728,1.428-5.695,1.969c-1.649,0.256,6.771-2.707-0.918-0.463c0.627-0.203,1.189-0.387,1.733-0.563
		c-2.319,0.574-4.706,0.921-9.484,2.108c1.896-0.563,3.199-0.95,4.101-1.217c0.821-0.261,1.15-0.392,1.136-0.435
		c-0.014-0.044-0.371,0-0.919,0.087c-0.304,0.051-0.67,0.11-1.041,0.172c-1.557,0.271-3.021,0.463,4.278-1.3l0.493-0.391
		l1.371-0.305c1.008-0.335,0.268-0.233-1.037-0.015c-0.873,0.153-1.905,0.335-2.943,0.517c1.092-0.289,2.107-0.454,2.757-0.586
		c3.828-1.149,2.987-0.881-1.289-0.599l3.681-0.643c-0.883,0.095,0.995-0.394,2.548-0.806c1.587-0.436,2.772-0.756,1.617-0.957
		c0.299-0.005,0.788-0.016,1.184-0.025c-1.105-0.235,1.58-0.809,2.921-1.067c1.413-0.297,1.744-0.399-1.838-1.173
		c-0.355-0.31-0.65-0.655-0.907-1.063c-1.894,0.957-2.877-0.858-4.653-0.638c0.348-0.725,3.718-0.817,3.32-0.103l-0.451-0.002
		c3.331,1.167,2.855-1.034,4.917-0.094c0.925-0.98,6.992-4.836,10.068-11.031l-2.736-0.028c0.35-0.582,0.72-1.165,1.018-1.772
		c0.788-0.374,2.255-0.376,1.535,1.062c1.738-0.53-0.157-2.611-0.727-2.62c2.005-2.661,2.594,1.331,2.934,0.533l0.245-1.263
		l-0.395,0.263c-0.732-1.055-1.747-1.106-1.175-2.757c0.819-1.093,1.761-0.694,1.977-1.139c0.188-0.018,0.324-0.184,0.223-0.691
		c0.217-0.878,0.545-1.785,0.663-2.661c-0.714,0.514-1.425,1.001-2.191,1.465c-0.815-0.848,0.414-2.225-2.024-0.587
		c1.909-1.178,2.458-3.561,2.2-5.569c-0.184-2.056-1.521-3.731-1.472-4.374c-2.097-0.318-3.265-0.857-4.63-1.421
		c0.069,0.446-1.365,2.089-2.43,1.721c3.812-3.613-0.88-2.056-0.216-5.265c-0.073,2.099-5.249,0.115-4.86,3.293
		c-1.168-0.381,0.753-1.69,0.106-2.757c-2.187,0.878-3.916,0.601-5.991,0.177c-2.374-0.422-3.725-0.989-5.214-0.691
		c-0.046,0.592,0.464,1.493-0.183,2.376l-1.606-2.952c-0.597,0.29-0.541,3.413-1.638,1.365c0.156,0.497,0.388,1.244-0.012,1.436
		c-5.935-2.863-12.105,2.392-18.139-3.001c0.818,1.144,0.275,1.257-0.347,1.301c0.406,0.272-0.005,1.459,0.077,2.261l-2.526-2.218
		c-0.453,2.225-2.701,0.158-2.959,2.284l0.797-0.386c-1.054,2.514,1.5,5.572,1.354,8.792c1.18-2.855,3.145,4.215,5.083,0.128
		c0.432,0.656-0.364,1.039-0.132,1.784c0.49-1.38,1.086-1.669,2.194-1.055l-0.124,0.343c3.106-0.345,4.442,1.011,7.935,1.907
		l-0.263-1.59c0.751,0.21,0.91,0.709,1.262,1.108c0.854-2.417-2.107-0.131-1.33-2.794c1.004,3.236,5.29,0.033,5.972,3.713
		c1.154,0.016-0.343-1.843,0.81-1.825l0.309,0.996l0.288-1.285c0.757,0.21,1.142,1.455,1.173,2.297
		c-0.184-0.1-0.521,0.238-0.718,0.31c0.984,1.172,2.765-0.407,3.103-0.026l-1.11-0.61c0.787-0.235,1.617-0.33,2.468-0.372
		l1.755-0.054c0.783-0.044,1.498-0.226,2.799-1.242l0.235-0.751c2.209-1.395,0.61,0.824,2.464,0.176l-0.198,0.179
		c0.89-0.748,1.692-1.137,2.062-1.027c-1.18,0.855-0.998,1.761-2.408,2.698c2.734-1.219,1.737-1.178,5.923-3.269l-1.307,1.323
		c1.603-0.725,2.479-1.249,3.204-0.535c-1.579,0.13-2.291,1.99-4.312,2.397c-1.541,1.751-0.731,1.615-0.076,1.79
		c0.635,0.113,1.012,0.425-1.56,1.539c4.235-0.673,2.675-2.202,3.546-2.146c1.526-1.063,3.191-0.576,2.606,0.323
		c-0.288,0.814-5.764,2.599-5.972,3.431c0.057-0.103-0.254-0.072-0.205-0.172c-1.153,0.417,1.136,0.669-0.701,1.14
		c2.229,0.356-0.363,0.54,2.489,0.929c-0.033-0.413-0.112-0.812-0.186-1.175c0.594,0.486,3.6,1.775,1.282,2.811
		c-0.482-0.248-1.014-0.765-1.327-1.058c-0.96,0.136,0.205,0.737-0.785,0.837c-2.625-0.817,0.118-1.442-1.89-2.187
		c-1.299,0.074,1.635,1.198-1.323,0.492c3.642,1.135-0.803,0.545,1.536,2.089l-1.459-0.691c0.184,0.174,0.759,0.701,0.596,0.861
		c-0.537-0.433-1.104-0.837-1.691-1.206c0.703,0.56,0.196,0.597-0.313,0.482c-0.489-0.138-1.104-0.315-1.027,0.384
		c0.867-1.224,1.768,0.858,3.086,1.026c0.434,2.957-3.98-1.565-5.112,0.894c0.203-0.555,1.634-0.4,1.864,0.466
		c-0.333,0.123-0.588,0.054-1.154,0.236c-0.597,0.213-1.228,0.351-1.812,0.323c-2.494,2.747,1.757,0.602,1.422,2.245
		c-2.511-0.308-0.568,1.631-1.03,2.783l-1.589-0.786c-4.396,2.03,2.776,2.146-1.381,3.613c-0.487-0.538-0.989-1.122-1.39-1.733
		c-0.322,0.461-0.634,0.911-0.999,1.337l-1.909-0.891c-0.401,1.759-1.287,1.941-4.453,3.062c2.269-0.01,4.37,0.842,2.793,1.752
		c-2.957,0.507-1.982-0.628-4.335,0.834c-1.339-0.417-2.773-1.032,1.151-1.444c-0.784-0.158-1.051-0.527-1.762-0.709
		c-3.588,0.64-4.87,2.117-6.087,2.706c0.618-0.231,1.385-0.504,2.126-0.622c-0.2,0.865-0.125,1.634,0.164,2.315
		c-2.114,0.364-2.749,0.131-3.232-0.149c-0.607,0.474,0.538,0.742-0.469,1.377c-2.961-0.025-6.544,0.194-5.59-0.891
		c-0.668,0.815-1.235,1.588-1.592,2.282c-1.825,0.238-7.193,1.621-7.871,1.416c-2.772,0.845-2.973,1.613-3.005,2.284
		c-0.096,0.702,0.039,1.28-3.748,2.442c0.732-0.053,1.223-0.005,1.152,0.235c-2.458,0.845-5.878,2.021-8.498,2.922
		c-2.66,0.963-4.465,1.825-2.395,1.892l-13.197,3.324c-0.173,0.177,0.226,0.159,1.008,0.011c0.58-0.125,1.225-0.263,1.936-0.415
		c4.226-0.993,11.064-2.781,12.731-2.73c0.707-0.092,1.391-0.156,2.028-0.185c4.545-0.325-8.426,2.131-10.642,2.893
		c6.544-1.044,16.314-2.893,9.795-0.85C292.612,142.589,293.745,142.209,292.733,142.268z M317.339,143.072
		c-1.24,0.29-4.733,1.191-2.803,0.318C319.501,141.748,317.757,142.552,317.339,143.072z M358.739,142.194
		c-0.355,0.427-0.597,0.085-0.804-0.609C358.242,141.539,358.562,141.669,358.739,142.194z M356.068,196.003
		c0,0-0.007-0.051-0.012-0.087C357.036,196.043,356.676,195.977,356.068,196.003z M354.359,196.241
		c-0.014,0.274,0.115,0.461,0.292,0.617c-0.124-0.405,0.159-0.617,0.562-0.732C354.891,195.826,354.564,195.685,354.359,196.241z
		 M366.269,103.582l-0.556,0.446C365.448,103.206,365.811,103.395,366.269,103.582z"/>
	<path style="fill:#EBF0F3;" d="M355.116,143.498c-0.041-0.286,0.029-0.579,0.104-0.875
		C354.952,142.849,354.826,143.147,355.116,143.498z"/>
	<path style="fill:#EBF0F3;" d="M300.387,135.268c0.102-0.034,0.115-0.039,0.2-0.069l-0.943,0.107L300.387,135.268z"/>
	<path style="fill:#EBF0F3;" d="M365.749,171.671c0.364,0.011,0.666,0.141,0.939,0.313
		C366.444,171.671,366.145,171.491,365.749,171.671z"/>
	<path style="fill:#EBF0F3;" d="M348.548,202.924l0.689-0.871c-0.394,0.313-0.725,0.094-1.07-0.008
		C348.373,202.363,348.816,202.742,348.548,202.924z"/>
	<path style="fill:#EBF0F3;" d="M336.153,198.151c-0.039,0.241-0.26,0.153-0.298,0.395l0.366,0.66
		C336.748,198.893,336.856,198.162,336.153,198.151z"/>
	<path style="fill:#EBF0F3;" d="M345.084,198.694c-0.736-1.152-1.05-0.443-1.537,0.121c0.034-0.025,0.063-0.054,0.107-0.061
		C344.391,200.527,344.744,199.606,345.084,198.694z"/>
	<path style="fill:#EBF0F3;" d="M343.428,198.935c-0.155,0.164-0.337,0.292-0.553,0.336
		C343.165,199.979,343.187,199.293,343.428,198.935z"/>
	<path style="fill:#EBF0F3;" d="M353.144,198.067c-0.467-0.12,0.732,1.6,0.281,1.227
		C354.015,200.972,354.227,196.317,353.144,198.067z"/>
	<polygon style="fill:#EBF0F3;" points="342.408,195.043 343.441,196.395 343.113,195.022 	"/>
	<path style="fill:#EBF0F3;" d="M347.7,193.417l-1.179,0.158c0.158,0.235,0.121,0.446,0.038,0.643
		C347.169,193.923,347.977,193.829,347.7,193.417z"/>
	<path style="fill:#EBF0F3;" d="M346.559,194.218c-0.318,0.153-0.587,0.356-0.617,0.694
		C346.097,194.8,346.422,194.541,346.559,194.218z"/>
	<polygon style="fill:#EBF0F3;" points="343.455,193.875 343.909,194.021 344.638,193.75 	"/>
	<path style="fill:#EBF0F3;" d="M357.802,187.367l0.72-1.067c-0.223-0.545-0.69-0.656-0.929-0.218
		C357.583,186.575,357.341,187.008,357.802,187.367z"/>
	<path style="fill:#EBF0F3;" d="M352.272,185.499c0.457,0.12,0.681,0.423,1.134,0.789l-1.113-1.766L352.272,185.499z"/>
	<path style="fill:#EBF0F3;" d="M354.855,183.208c-0.224-0.548,0.478-2.327-0.675-1.391
		C354.403,182.358,353.698,183.415,354.855,183.208z"/>
	<polygon style="fill:#EBF0F3;" points="370.72,174.971 370.516,175.188 372.783,177.749 	"/>
	<path style="fill:#EBF0F3;" d="M369.624,161.831c-0.849,0.522,2.178,0.343,1.021,0.832c0.77,0.299,0.939-0.422,1.594-0.177
		C371.385,161.903,371.881,161.743,369.624,161.831z"/>
	<path style="fill:#EBF0F3;" d="M372.239,162.486c0.127,0.085,0.277,0.187,0.472,0.318
		C372.536,162.629,372.387,162.545,372.239,162.486z"/>
	<polygon style="fill:#EBF0F3;" points="314.94,85.19 314.033,84.478 314.621,85.626 	"/>
	<path style="fill:#EBF0F3;" d="M313.21,87.733l-0.219-2.179l-0.538,1.974C312.657,87.43,313.053,87.241,313.21,87.733z"/>
	<path style="fill:#EBF0F3;" d="M311.577,147.295l1.251-0.482c0.975-0.54,0.706-0.596,0.181-0.717L311.577,147.295z"/>
	<polygon style="fill:#EBF0F3;" points="295.137,144.75 295.363,144.808 300.463,143.132 	"/>
	<path style="fill:#EBF0F3;" d="M271.113,145.774c0.441,0.131,3.266-0.235,3.656-0.095
		C271.43,145.919,281.905,143.329,271.113,145.774z"/>
</g>
<g>
</g>
<g>
</g>
<g>
</g>
<g>
</g>
<g>
</g>
<g>
</g>
<g>
</g>
<g>
</g>
<g>
</g>
<g>
</g>
<g>
</g>
<g>
</g>
<g>
</g>
<g>
</g>
<g>
</g>
</svg>
